G04 --- HEADER BEGIN --- *
%TF.GenerationSoftware,LibrePCB,LibrePCB,0.1.0*%
%TF.CreationDate,2018-04-15T17:46:50*%
%TF.ProjectId,Demo Brushless Controller Project - default,ace706f3-b818-4ce9-86ab-e3185109c18f,v1*%
%TF.Part,Single*%
%FSLAX66Y66*%
%MOMM*%
G01*
G74*
G04 --- HEADER END --- *
G04 --- APERTURE LIST BEGIN --- *
%ADD10P,2.74X8X22.5*%
%ADD11R,1.2X1.3*%
%ADD12R,1.4X1.4*%
%ADD13C,2.74*%
%ADD14P,2.74X8X292.5*%
%ADD15R,0.9X1.6*%
%ADD16R,5.2X4.5*%
%ADD17R,2.2X1.0*%
%ADD18R,3.2X2.3*%
%ADD19R,1.3X1.2*%
%ADD20R,2.74X5.28*%
%ADD21R,2.6X2.4*%
%ADD22R,2.36X1.98*%
%ADD23R,5.28X2.0288*%
%ADD24R,2.232X0.8604*%
%ADD25R,3.4X5.2*%
%ADD26C,1.2*%
G04 --- APERTURE LIST END --- *
G04 --- BOARD BEGIN --- *
D10*
X55880000Y14605000D03*
D11*
X20535000Y15557500D03*
X18835000Y15557500D03*
D12*
X7717500Y15240000D03*
X5617500Y15240000D03*
D11*
X14343750Y10001250D03*
X12643750Y10001250D03*
D13*
X55880000Y10795000D03*
D14*
X55880000Y5715000D03*
D15*
X23495000Y2747500D03*
X24765000Y2747500D03*
X26035000Y2747500D03*
D16*
X24130000Y6397500D03*
D15*
X22225000Y2747500D03*
D17*
X5357500Y7630000D03*
D18*
X2232500Y12630000D03*
D17*
X5357500Y6380000D03*
X5357500Y8880000D03*
D18*
X2232500Y3880000D03*
D17*
X5357500Y10130000D03*
D19*
X6985000Y3707500D03*
X6985000Y2007500D03*
D15*
X23495000Y10367500D03*
X24765000Y10367500D03*
X26035000Y10367500D03*
D16*
X24130000Y14017500D03*
D15*
X22225000Y10367500D03*
X31750000Y2747500D03*
X33020000Y2747500D03*
X34290000Y2747500D03*
D16*
X32385000Y6397500D03*
D15*
X30480000Y2747500D03*
D11*
X4865000Y13335000D03*
X6565000Y13335000D03*
D10*
X55880000Y1905000D03*
D15*
X31750000Y10367500D03*
X33020000Y10367500D03*
X34290000Y10367500D03*
D16*
X32385000Y14017500D03*
D15*
X30480000Y10367500D03*
D11*
X9310000Y15240000D03*
X11010000Y15240000D03*
X16986250Y3707500D03*
X16986250Y2007500D03*
D20*
X36512500Y8890000D03*
X44767500Y8890000D03*
D15*
X40005000Y10367500D03*
X41275000Y10367500D03*
X42545000Y10367500D03*
D16*
X40640000Y14017500D03*
D15*
X38735000Y10367500D03*
D21*
X10318750Y7475000D03*
X10318750Y11575000D03*
D19*
X20002500Y1690000D03*
X20002500Y3390000D03*
X12643750Y6826250D03*
X14343750Y6826250D03*
D22*
X52705000Y6850000D03*
X52705000Y10920000D03*
D15*
X40005000Y2747500D03*
X41275000Y2747500D03*
X42545000Y2747500D03*
D16*
X40640000Y6397500D03*
D15*
X38735000Y2747500D03*
D23*
X3016250Y1270000D03*
D24*
X15138400Y952500D03*
X8991600Y4762500D03*
X8991600Y952500D03*
X15138400Y3492500D03*
X15138400Y2222500D03*
X8991600Y3492500D03*
X8991600Y2222500D03*
X15138400Y4762500D03*
D12*
X3272500Y15240000D03*
X1172500Y15240000D03*
D20*
X28257500Y8890000D03*
D25*
X49828450Y2857500D03*
X45104050Y2857500D03*
D11*
X17042500Y15557500D03*
X15342500Y15557500D03*
D19*
X12643750Y8413750D03*
X14343750Y8413750D03*
D11*
X18732500Y9310000D03*
X18732500Y11010000D03*
D26*
X10953750Y2857500D03*
X27622500Y14128750D03*
X35877500Y14128750D03*
X44132500Y14128750D03*
X4762500Y3016250D03*
G04 --- BOARD END --- *
%TF.MD5,2e20037f1af680d466688be859dec450*%
M02*
