G04 --- HEADER BEGIN --- *
%TF.GenerationSoftware,LibrePCB,LibrePCB,0.1.0*%
%TF.CreationDate,2018-04-15T17:46:50*%
%TF.ProjectId,Demo Brushless Controller Project - default,ace706f3-b818-4ce9-86ab-e3185109c18f,v1*%
%TF.Part,Single*%
%FSLAX66Y66*%
%MOMM*%
G01*
G74*
G04 --- HEADER END --- *
G04 --- APERTURE LIST BEGIN --- *
%ADD10C,0.1524*%
%ADD11C,0.254*%
%ADD12C,1.454X0.946*%
%ADD13C,0.0*%
%ADD14C,10.3124X10.0076*%
%ADD15C,0.2032*%
%ADD16C,0.0508*%
%ADD17C,0.9144X0.6096*%
%ADD18C,0.2*%
%ADD19P,2.74X8X22.5*%
%ADD20R,1.2X1.6*%
%ADD21R,5.28X2.0288*%
%ADD22R,1.3X1.2*%
%ADD23R,1.2X0.4*%
%ADD24R,0.4X1.2*%
%ADD25R,1.2X1.3*%
%ADD26C,2.74*%
%ADD27P,2.74X8X292.5*%
%ADD28R,2.4X3.8*%
%ADD29R,2.435X1.419*%
%ADD30R,0.8604X2.232*%
%ADD31R,1.2X1.2*%
%ADD32R,2.2X1.0*%
%ADD33R,3.2X2.3*%
%ADD34R,2.15X2.7*%
%ADD35C,1.2*%
G04 --- APERTURE LIST END --- *
G04 --- BOARD BEGIN --- *
D10*
X54356000Y15240000D02*
X54356000Y13970000D01*
X56515000Y13081000D02*
X57404000Y13970000D01*
X56515000Y16129000D02*
X57404000Y15240000D01*
X57404000Y15240000D02*
X57404000Y13970000D01*
X54356000Y15240000D02*
X55245000Y16129000D01*
X55245000Y16129000D02*
X56515000Y16129000D01*
X55245000Y13081000D02*
X54356000Y13970000D01*
X56515000Y13081000D02*
X55245000Y13081000D01*
X31267400Y12852400D02*
X31267400Y12039600D01*
X31267400Y12039600D02*
X30708600Y12039600D01*
X28422600Y12039600D02*
X28422600Y12852400D01*
X28981400Y12039600D02*
X28422600Y12039600D01*
X5810250Y101600D02*
X222250Y101600D01*
X222250Y2438400D01*
X5810250Y2438400D01*
X5810250Y101600D01*
D11*
X10595000Y11672500D02*
X10870000Y11947500D01*
X10870000Y11947500D02*
X17070000Y11947500D01*
X17070000Y11947500D02*
X17345000Y11672500D01*
X17345000Y11672500D02*
X17345000Y5472500D01*
X17345000Y5472500D02*
X17070000Y5197500D01*
X17070000Y5197500D02*
X10870000Y5197500D01*
X10870000Y5197500D02*
X10595000Y5472500D01*
X10595000Y5472500D02*
X10595000Y11672500D01*
D12*
X11970000Y6572500D03*
D10*
X55880000Y9398000D02*
X55880000Y9144000D01*
X55880000Y9144000D02*
X54737000Y9144000D01*
X54737000Y9144000D02*
X54737000Y8509000D01*
X54737000Y8509000D02*
X57023000Y8509000D01*
X57023000Y8509000D02*
X57023000Y9144000D01*
X57023000Y9144000D02*
X55880000Y9144000D01*
X55880000Y7620000D02*
X55880000Y7112000D01*
X57531000Y12065000D02*
X56769000Y12065000D01*
X57150000Y11684000D02*
X57150000Y12446000D01*
D13*
X54737000Y8001000D02*
X54737000Y7366000D01*
X57023000Y7366000D01*
X57023000Y8001000D01*
X54737000Y8001000D01*
G36*
X54737000Y8001000D02*
X54737000Y7366000D01*
X57023000Y7366000D01*
X57023000Y8001000D01*
X54737000Y8001000D01*
G37*
D14*
X55880000Y8255000D03*
D15*
X51625500Y10420750D02*
X48069500Y10420750D01*
X48069500Y3866750D01*
X51625500Y3866750D01*
X51625500Y10420750D01*
D10*
X54356000Y2540000D02*
X54356000Y1270000D01*
X56515000Y381000D02*
X57404000Y1270000D01*
X56515000Y3429000D02*
X57404000Y2540000D01*
X57404000Y2540000D02*
X57404000Y1270000D01*
X54356000Y2540000D02*
X55245000Y3429000D01*
X55245000Y3429000D02*
X56515000Y3429000D01*
X55245000Y381000D02*
X54356000Y1270000D01*
X56515000Y381000D02*
X55245000Y381000D01*
D16*
X36512500Y10807700D02*
X31432500Y10807700D01*
D10*
X36512500Y7429500D02*
G02*
X36258500Y7175500I254000J0D01*
G01*
X35369500Y7175500D02*
X35115500Y7175500D01*
X34099500Y7175500D02*
X33845500Y7175500D01*
X32829500Y7175500D02*
X32575500Y7175500D01*
X31686500Y7175500D02*
G02*
X31432500Y7429500I0J254000D01*
G01*
X35369500Y11239500D02*
X35115500Y11239500D01*
X34099500Y11239500D02*
X33845500Y11239500D01*
X32829500Y11239500D02*
X32575500Y11239500D01*
X31686500Y11239500D02*
G03*
X31432500Y10985500I0J254000D01*
G01*
X31432500Y7429500D02*
X31432500Y10985500D01*
X36512500Y7429500D02*
X36512500Y10985500D01*
X36512500Y10985500D02*
G03*
X36258500Y11239500I254000J0D01*
G01*
D17*
X35750500Y10223500D03*
D10*
X39522400Y12852400D02*
X39522400Y12039600D01*
X39522400Y12039600D02*
X38963600Y12039600D01*
X36677600Y12039600D02*
X36677600Y12852400D01*
X37236400Y12039600D02*
X36677600Y12039600D01*
D16*
X28257500Y10807700D02*
X23177500Y10807700D01*
D10*
X28257500Y7429500D02*
G02*
X28003500Y7175500I254000J0D01*
G01*
X27114500Y7175500D02*
X26860500Y7175500D01*
X25844500Y7175500D02*
X25590500Y7175500D01*
X24574500Y7175500D02*
X24320500Y7175500D01*
X23431500Y7175500D02*
G02*
X23177500Y7429500I0J254000D01*
G01*
X27114500Y11239500D02*
X26860500Y11239500D01*
X25844500Y11239500D02*
X25590500Y11239500D01*
X24574500Y11239500D02*
X24320500Y11239500D01*
X23431500Y11239500D02*
G03*
X23177500Y10985500I0J254000D01*
G01*
X23177500Y7429500D02*
X23177500Y10985500D01*
X28257500Y7429500D02*
X28257500Y10985500D01*
X28257500Y10985500D02*
G03*
X28003500Y11239500I254000J0D01*
G01*
D17*
X27495500Y10223500D03*
D16*
X44767500Y10807700D02*
X39687500Y10807700D01*
D10*
X44767500Y7429500D02*
G02*
X44513500Y7175500I254000J0D01*
G01*
X43624500Y7175500D02*
X43370500Y7175500D01*
X42354500Y7175500D02*
X42100500Y7175500D01*
X41084500Y7175500D02*
X40830500Y7175500D01*
X39941500Y7175500D02*
G02*
X39687500Y7429500I0J254000D01*
G01*
X43624500Y11239500D02*
X43370500Y11239500D01*
X42354500Y11239500D02*
X42100500Y11239500D01*
X41084500Y11239500D02*
X40830500Y11239500D01*
X39941500Y11239500D02*
G03*
X39687500Y10985500I0J254000D01*
G01*
X39687500Y7429500D02*
X39687500Y10985500D01*
X44767500Y7429500D02*
X44767500Y10985500D01*
X44767500Y10985500D02*
G03*
X44513500Y11239500I254000J0D01*
G01*
D17*
X44005500Y10223500D03*
D10*
X47777400Y12852400D02*
X47777400Y12039600D01*
X47777400Y12039600D02*
X47218600Y12039600D01*
X44932600Y12039600D02*
X44932600Y12852400D01*
X45491400Y12039600D02*
X44932600Y12039600D01*
D15*
X4232500Y5000000D02*
X4232500Y5525000D01*
X4232500Y5525000D02*
X4232500Y13525000D01*
X4232500Y13525000D02*
X4232500Y14050000D01*
X4232500Y14050000D02*
X232500Y14050000D01*
X232500Y14050000D02*
X232500Y13900000D01*
X232500Y13900000D02*
X232500Y5150000D01*
X232500Y5150000D02*
X232500Y5000000D01*
X232500Y5000000D02*
X4232500Y5000000D01*
D16*
X1232500Y5025000D02*
X1232500Y5525000D01*
X1232500Y5525000D02*
X1232500Y5775000D01*
X1232500Y5775000D02*
X1857500Y5775000D01*
X1857500Y5775000D02*
X1857500Y13275000D01*
X1232500Y13275000D02*
X1232500Y13525000D01*
X1232500Y13525000D02*
X1232500Y14025000D01*
X1232500Y13275000D02*
X1857500Y13275000D01*
X3607500Y5025000D02*
X3607500Y5525000D01*
X3607500Y5525000D02*
X4232500Y5525000D01*
X3607500Y13525000D02*
X3607500Y14025000D01*
X3607500Y13525000D02*
X4232500Y13525000D01*
X1232500Y5525000D02*
X607500Y5525000D01*
X607500Y5525000D02*
X607500Y13525000D01*
X607500Y13525000D02*
X1232500Y13525000D01*
X607500Y5525000D02*
X232500Y5150000D01*
X607500Y13525000D02*
X232500Y13900000D01*
X4107500Y6150000D02*
X3607500Y6150000D01*
X3607500Y6150000D02*
X3607500Y6650000D01*
X3607500Y6650000D02*
X4107500Y6650000D01*
X4107500Y7400000D02*
X3607500Y7400000D01*
X3607500Y7400000D02*
X3607500Y7900000D01*
X3607500Y7900000D02*
X4107500Y7900000D01*
X4107500Y8650000D02*
X3607500Y8650000D01*
X3607500Y8650000D02*
X3607500Y9150000D01*
X3607500Y9150000D02*
X4107500Y9150000D01*
X4107500Y9900000D02*
X3607500Y9900000D01*
X3607500Y9900000D02*
X3607500Y10400000D01*
X3607500Y10400000D02*
X4107500Y10400000D01*
X4107500Y11150000D02*
X3607500Y11150000D01*
X3607500Y11150000D02*
X3607500Y11650000D01*
X3607500Y11650000D02*
X4107500Y11650000D01*
X4107500Y12400000D02*
X3607500Y12400000D01*
X3607500Y12400000D02*
X3607500Y12900000D01*
X3607500Y12900000D02*
X4107500Y12900000D01*
D13*
X1857500Y6150000D02*
X1857500Y6650000D01*
X982500Y6650000D01*
X982500Y6150000D01*
X1857500Y6150000D01*
G36*
X1857500Y6150000D02*
X1857500Y6650000D01*
X982500Y6650000D01*
X982500Y6150000D01*
X1857500Y6150000D01*
G37*
X1857500Y7400000D02*
X1857500Y7900000D01*
X982500Y7900000D01*
X982500Y7400000D01*
X1857500Y7400000D01*
G36*
X1857500Y7400000D02*
X1857500Y7900000D01*
X982500Y7900000D01*
X982500Y7400000D01*
X1857500Y7400000D01*
G37*
X1857500Y8650000D02*
X1857500Y9150000D01*
X982500Y9150000D01*
X982500Y8650000D01*
X1857500Y8650000D01*
G36*
X1857500Y8650000D02*
X1857500Y9150000D01*
X982500Y9150000D01*
X982500Y8650000D01*
X1857500Y8650000D01*
G37*
X1857500Y9900000D02*
X1857500Y10400000D01*
X982500Y10400000D01*
X982500Y9900000D01*
X1857500Y9900000D01*
G36*
X1857500Y9900000D02*
X1857500Y10400000D01*
X982500Y10400000D01*
X982500Y9900000D01*
X1857500Y9900000D01*
G37*
X1857500Y11150000D02*
X1857500Y11650000D01*
X982500Y11650000D01*
X982500Y11150000D01*
X1857500Y11150000D01*
G36*
X1857500Y11150000D02*
X1857500Y11650000D01*
X982500Y11650000D01*
X982500Y11150000D01*
X1857500Y11150000D01*
G37*
X1857500Y12400000D02*
X1857500Y12900000D01*
X982500Y12900000D01*
X982500Y12400000D01*
X1857500Y12400000D01*
G36*
X1857500Y12400000D02*
X1857500Y12900000D01*
X982500Y12900000D01*
X982500Y12400000D01*
X1857500Y12400000D01*
G37*
D18*
X53467000Y12731750D02*
X52467000Y12731750D01*
X52467000Y13112861D01*
X52514778Y13208417D01*
X52562556Y13255083D01*
X52657000Y13302861D01*
X52800333Y13302861D01*
X52895889Y13255083D01*
X52943667Y13208417D01*
X52990333Y13112861D01*
X52990333Y12731750D01*
X53181444Y13798417D02*
X53181444Y14273972D01*
X53467000Y13702861D02*
X52467000Y14036194D01*
X53467000Y14369528D01*
X53467000Y14769528D02*
X52467000Y14769528D01*
X52467000Y15007306D01*
X52514778Y15150639D01*
X52610333Y15246195D01*
X52704778Y15292861D01*
X52895889Y15340639D01*
X53038111Y15340639D01*
X53229222Y15292861D01*
X53323667Y15246195D01*
X53419222Y15150639D01*
X53467000Y15007306D01*
X53467000Y14769528D01*
X53467000Y16311750D02*
X53467000Y15740639D01*
X53467000Y16026195D02*
X52467000Y16026195D01*
X52610333Y15930639D01*
X52704778Y15836195D01*
X52752556Y15740639D01*
X29368750Y14287500D02*
X29368750Y15287500D01*
X29606528Y15287500D01*
X29749861Y15239722D01*
X29845417Y15144167D01*
X29892083Y15049722D01*
X29939861Y14858611D01*
X29939861Y14716389D01*
X29892083Y14525278D01*
X29845417Y14430833D01*
X29749861Y14335278D01*
X29606528Y14287500D01*
X29368750Y14287500D01*
X30910972Y14287500D02*
X30339861Y14287500D01*
X30625417Y14287500D02*
X30625417Y15287500D01*
X30529861Y15144167D01*
X30435417Y15049722D01*
X30339861Y15001944D01*
X1587500Y730250D02*
X1587500Y1730250D01*
X1968611Y1730250D01*
X2064167Y1682472D01*
X2110833Y1634694D01*
X2158611Y1540250D01*
X2158611Y1396917D01*
X2110833Y1301361D01*
X2064167Y1253583D01*
X1968611Y1206917D01*
X1587500Y1206917D01*
X2654167Y1015806D02*
X3129722Y1015806D01*
X2558611Y730250D02*
X2891944Y1730250D01*
X3225278Y730250D01*
X3625278Y730250D02*
X3625278Y1730250D01*
X3863056Y1730250D01*
X4006389Y1682472D01*
X4101945Y1586917D01*
X4148611Y1492472D01*
X4196389Y1301361D01*
X4196389Y1159139D01*
X4148611Y968028D01*
X4101945Y873583D01*
X4006389Y778028D01*
X3863056Y730250D01*
X3625278Y730250D01*
X5073056Y1730250D02*
X4881945Y1730250D01*
X4786389Y1682472D01*
X4739722Y1634694D01*
X4644167Y1492472D01*
X4596389Y1301361D01*
X4596389Y920250D01*
X4644167Y825806D01*
X4691945Y778028D01*
X4786389Y730250D01*
X4977500Y730250D01*
X5073056Y778028D01*
X5119722Y825806D01*
X5167500Y920250D01*
X5167500Y1159139D01*
X5119722Y1253583D01*
X5073056Y1301361D01*
X4977500Y1349139D01*
X4786389Y1349139D01*
X4691945Y1301361D01*
X4644167Y1253583D01*
X4596389Y1159139D01*
X10302639Y571806D02*
X10254861Y524028D01*
X10112639Y476250D01*
X10017083Y476250D01*
X9873750Y524028D01*
X9779306Y619583D01*
X9731528Y714028D01*
X9683750Y905139D01*
X9683750Y1047361D01*
X9731528Y1238472D01*
X9779306Y1332917D01*
X9873750Y1428472D01*
X10017083Y1476250D01*
X10112639Y1476250D01*
X10254861Y1428472D01*
X10302639Y1380694D01*
X11273750Y476250D02*
X10702639Y476250D01*
X10988195Y476250D02*
X10988195Y1476250D01*
X10892639Y1332917D01*
X10798195Y1238472D01*
X10702639Y1190694D01*
X11769306Y476250D02*
X11959306Y476250D01*
X12054861Y524028D01*
X12102639Y571806D01*
X12197083Y714028D01*
X12244861Y905139D01*
X12244861Y1286250D01*
X12197083Y1380694D01*
X12150417Y1428472D01*
X12054861Y1476250D01*
X11863750Y1476250D01*
X11769306Y1428472D01*
X11721528Y1380694D01*
X11673750Y1286250D01*
X11673750Y1047361D01*
X11721528Y952917D01*
X11769306Y905139D01*
X11863750Y857361D01*
X12054861Y857361D01*
X12150417Y905139D01*
X12197083Y952917D01*
X12244861Y1047361D01*
X13335000Y9096250D02*
X13335000Y8286250D01*
X13382778Y8191806D01*
X13430556Y8144028D01*
X13525000Y8096250D01*
X13716111Y8096250D01*
X13811667Y8144028D01*
X13858333Y8191806D01*
X13906111Y8286250D01*
X13906111Y9096250D01*
X14782778Y8762917D02*
X14782778Y8096250D01*
X14543889Y9144028D02*
X14306111Y8429583D01*
X14925000Y8429583D01*
X39306111Y793750D02*
X38972778Y1270417D01*
X38735000Y793750D02*
X38735000Y1793750D01*
X39116111Y1793750D01*
X39211667Y1745972D01*
X39258333Y1698194D01*
X39306111Y1603750D01*
X39306111Y1460417D01*
X39258333Y1364861D01*
X39211667Y1317083D01*
X39116111Y1270417D01*
X38735000Y1270417D01*
X39801667Y793750D02*
X39991667Y793750D01*
X40087222Y841528D01*
X40135000Y889306D01*
X40229444Y1031528D01*
X40277222Y1222639D01*
X40277222Y1603750D01*
X40229444Y1698194D01*
X40182778Y1745972D01*
X40087222Y1793750D01*
X39896111Y1793750D01*
X39801667Y1745972D01*
X39753889Y1698194D01*
X39706111Y1603750D01*
X39706111Y1364861D01*
X39753889Y1270417D01*
X39801667Y1222639D01*
X39896111Y1174861D01*
X40087222Y1174861D01*
X40182778Y1222639D01*
X40229444Y1270417D01*
X40277222Y1364861D01*
X55800389Y5061256D02*
X55752611Y5013478D01*
X55610389Y4965700D01*
X55514833Y4965700D01*
X55371500Y5013478D01*
X55277056Y5109033D01*
X55229278Y5203478D01*
X55181500Y5394589D01*
X55181500Y5536811D01*
X55229278Y5727922D01*
X55277056Y5822367D01*
X55371500Y5917922D01*
X55514833Y5965700D01*
X55610389Y5965700D01*
X55752611Y5917922D01*
X55800389Y5870144D01*
X56200389Y5965700D02*
X56867056Y5965700D01*
X56438167Y4965700D01*
X49831389Y12319306D02*
X49783611Y12271528D01*
X49641389Y12223750D01*
X49545833Y12223750D01*
X49402500Y12271528D01*
X49308056Y12367083D01*
X49260278Y12461528D01*
X49212500Y12652639D01*
X49212500Y12794861D01*
X49260278Y12985972D01*
X49308056Y13080417D01*
X49402500Y13175972D01*
X49545833Y13223750D01*
X49641389Y13223750D01*
X49783611Y13175972D01*
X49831389Y13128194D01*
X50421389Y12794861D02*
X50326945Y12842639D01*
X50279167Y12890417D01*
X50231389Y12985972D01*
X50231389Y13033750D01*
X50279167Y13128194D01*
X50326945Y13175972D01*
X50421389Y13223750D01*
X50612500Y13223750D01*
X50708056Y13175972D01*
X50754722Y13128194D01*
X50802500Y13033750D01*
X50802500Y12985972D01*
X50754722Y12890417D01*
X50708056Y12842639D01*
X50612500Y12794861D01*
X50421389Y12794861D01*
X50326945Y12747083D01*
X50279167Y12700417D01*
X50231389Y12604861D01*
X50231389Y12413750D01*
X50279167Y12319306D01*
X50326945Y12271528D01*
X50421389Y12223750D01*
X50612500Y12223750D01*
X50708056Y12271528D01*
X50754722Y12319306D01*
X50802500Y12413750D01*
X50802500Y12604861D01*
X50754722Y12700417D01*
X50708056Y12747083D01*
X50612500Y12794861D01*
X19827639Y9144306D02*
X19779861Y9096528D01*
X19637639Y9048750D01*
X19542083Y9048750D01*
X19398750Y9096528D01*
X19304306Y9192083D01*
X19256528Y9286528D01*
X19208750Y9477639D01*
X19208750Y9619861D01*
X19256528Y9810972D01*
X19304306Y9905417D01*
X19398750Y10000972D01*
X19542083Y10048750D01*
X19637639Y10048750D01*
X19779861Y10000972D01*
X19827639Y9953194D01*
X20798750Y9048750D02*
X20227639Y9048750D01*
X20513195Y9048750D02*
X20513195Y10048750D01*
X20417639Y9905417D01*
X20323195Y9810972D01*
X20227639Y9763194D01*
X21769861Y9048750D02*
X21198750Y9048750D01*
X21484306Y9048750D02*
X21484306Y10048750D01*
X21388750Y9905417D01*
X21294306Y9810972D01*
X21198750Y9763194D01*
X39306111Y4445000D02*
X38972778Y4921667D01*
X38735000Y4445000D02*
X38735000Y5445000D01*
X39116111Y5445000D01*
X39211667Y5397222D01*
X39258333Y5349444D01*
X39306111Y5255000D01*
X39306111Y5111667D01*
X39258333Y5016111D01*
X39211667Y4968333D01*
X39116111Y4921667D01*
X38735000Y4921667D01*
X40182778Y5445000D02*
X39991667Y5445000D01*
X39896111Y5397222D01*
X39849444Y5349444D01*
X39753889Y5207222D01*
X39706111Y5016111D01*
X39706111Y4635000D01*
X39753889Y4540556D01*
X39801667Y4492778D01*
X39896111Y4445000D01*
X40087222Y4445000D01*
X40182778Y4492778D01*
X40229444Y4540556D01*
X40277222Y4635000D01*
X40277222Y4873889D01*
X40229444Y4968333D01*
X40182778Y5016111D01*
X40087222Y5063889D01*
X39896111Y5063889D01*
X39801667Y5016111D01*
X39753889Y4968333D01*
X39706111Y4873889D01*
X20383194Y12842639D02*
X20430972Y12794861D01*
X20478750Y12652639D01*
X20478750Y12557083D01*
X20430972Y12413750D01*
X20335417Y12319306D01*
X20240972Y12271528D01*
X20049861Y12223750D01*
X19907639Y12223750D01*
X19716528Y12271528D01*
X19622083Y12319306D01*
X19526528Y12413750D01*
X19478750Y12557083D01*
X19478750Y12652639D01*
X19526528Y12794861D01*
X19574306Y12842639D01*
X20478750Y13813750D02*
X20478750Y13242639D01*
X20478750Y13528195D02*
X19478750Y13528195D01*
X19622083Y13432639D01*
X19716528Y13338195D01*
X19764306Y13242639D01*
X19812083Y14690417D02*
X20478750Y14690417D01*
X19430972Y14451528D02*
X20145417Y14213750D01*
X20145417Y14832639D01*
X22319861Y9048750D02*
X21986528Y9525417D01*
X21748750Y9048750D02*
X21748750Y10048750D01*
X22129861Y10048750D01*
X22225417Y10000972D01*
X22272083Y9953194D01*
X22319861Y9858750D01*
X22319861Y9715417D01*
X22272083Y9619861D01*
X22225417Y9572083D01*
X22129861Y9525417D01*
X21748750Y9525417D01*
X23290972Y9048750D02*
X22719861Y9048750D01*
X23005417Y9048750D02*
X23005417Y10048750D01*
X22909861Y9905417D01*
X22815417Y9810972D01*
X22719861Y9763194D01*
X42528889Y4699306D02*
X42481111Y4651528D01*
X42338889Y4603750D01*
X42243333Y4603750D01*
X42100000Y4651528D01*
X42005556Y4747083D01*
X41957778Y4841528D01*
X41910000Y5032639D01*
X41910000Y5174861D01*
X41957778Y5365972D01*
X42005556Y5460417D01*
X42100000Y5555972D01*
X42243333Y5603750D01*
X42338889Y5603750D01*
X42481111Y5555972D01*
X42528889Y5508194D01*
X43405556Y5603750D02*
X43214445Y5603750D01*
X43118889Y5555972D01*
X43072222Y5508194D01*
X42976667Y5365972D01*
X42928889Y5174861D01*
X42928889Y4793750D01*
X42976667Y4699306D01*
X43024445Y4651528D01*
X43118889Y4603750D01*
X43310000Y4603750D01*
X43405556Y4651528D01*
X43452222Y4699306D01*
X43500000Y4793750D01*
X43500000Y5032639D01*
X43452222Y5127083D01*
X43405556Y5174861D01*
X43310000Y5222639D01*
X43118889Y5222639D01*
X43024445Y5174861D01*
X42976667Y5127083D01*
X42928889Y5032639D01*
X7603889Y3746806D02*
X7556111Y3699028D01*
X7413889Y3651250D01*
X7318333Y3651250D01*
X7175000Y3699028D01*
X7080556Y3794583D01*
X7032778Y3889028D01*
X6985000Y4080139D01*
X6985000Y4222361D01*
X7032778Y4413472D01*
X7080556Y4507917D01*
X7175000Y4603472D01*
X7318333Y4651250D01*
X7413889Y4651250D01*
X7556111Y4603472D01*
X7603889Y4555694D01*
X8575000Y3651250D02*
X8003889Y3651250D01*
X8289445Y3651250D02*
X8289445Y4651250D01*
X8193889Y4507917D01*
X8099445Y4413472D01*
X8003889Y4365694D01*
X9498333Y4651250D02*
X9022778Y4651250D01*
X8975000Y4174583D01*
X9022778Y4222361D01*
X9118333Y4270139D01*
X9356111Y4270139D01*
X9451667Y4222361D01*
X9498333Y4174583D01*
X9546111Y4080139D01*
X9546111Y3841250D01*
X9498333Y3746806D01*
X9451667Y3699028D01*
X9356111Y3651250D01*
X9118333Y3651250D01*
X9022778Y3699028D01*
X8975000Y3746806D01*
X20414861Y3333750D02*
X20081528Y3810417D01*
X19843750Y3333750D02*
X19843750Y4333750D01*
X20224861Y4333750D01*
X20320417Y4285972D01*
X20367083Y4238194D01*
X20414861Y4143750D01*
X20414861Y4000417D01*
X20367083Y3904861D01*
X20320417Y3857083D01*
X20224861Y3810417D01*
X19843750Y3810417D01*
X21385972Y3333750D02*
X20814861Y3333750D01*
X21100417Y3333750D02*
X21100417Y4333750D01*
X21004861Y4190417D01*
X20910417Y4095972D01*
X20814861Y4048194D01*
X22357083Y3333750D02*
X21785972Y3333750D01*
X22071528Y3333750D02*
X22071528Y4333750D01*
X21975972Y4190417D01*
X21881528Y4095972D01*
X21785972Y4048194D01*
X48736250Y6718300D02*
X48736250Y7718300D01*
X49755139Y6813856D02*
X49707361Y6766078D01*
X49565139Y6718300D01*
X49469583Y6718300D01*
X49326250Y6766078D01*
X49231806Y6861633D01*
X49184028Y6956078D01*
X49136250Y7147189D01*
X49136250Y7289411D01*
X49184028Y7480522D01*
X49231806Y7574967D01*
X49326250Y7670522D01*
X49469583Y7718300D01*
X49565139Y7718300D01*
X49707361Y7670522D01*
X49755139Y7622744D01*
X50202917Y7622744D02*
X50250695Y7670522D01*
X50345139Y7718300D01*
X50584028Y7718300D01*
X50678472Y7670522D01*
X50726250Y7622744D01*
X50774028Y7528300D01*
X50774028Y7432744D01*
X50726250Y7289411D01*
X50155139Y6718300D01*
X50774028Y6718300D01*
X29781111Y8731250D02*
X29447778Y9207917D01*
X29210000Y8731250D02*
X29210000Y9731250D01*
X29591111Y9731250D01*
X29686667Y9683472D01*
X29733333Y9635694D01*
X29781111Y9541250D01*
X29781111Y9397917D01*
X29733333Y9302361D01*
X29686667Y9254583D01*
X29591111Y9207917D01*
X29210000Y9207917D01*
X30181111Y9731250D02*
X30800000Y9731250D01*
X30466667Y9350139D01*
X30610000Y9350139D01*
X30704444Y9302361D01*
X30752222Y9254583D01*
X30800000Y9160139D01*
X30800000Y8921250D01*
X30752222Y8826806D01*
X30704444Y8779028D01*
X30610000Y8731250D01*
X30324444Y8731250D01*
X30228889Y8779028D01*
X30181111Y8826806D01*
X12683889Y1524306D02*
X12636111Y1476528D01*
X12493889Y1428750D01*
X12398333Y1428750D01*
X12255000Y1476528D01*
X12160556Y1572083D01*
X12112778Y1666528D01*
X12065000Y1857639D01*
X12065000Y1999861D01*
X12112778Y2190972D01*
X12160556Y2285417D01*
X12255000Y2380972D01*
X12398333Y2428750D01*
X12493889Y2428750D01*
X12636111Y2380972D01*
X12683889Y2333194D01*
X13655000Y1428750D02*
X13083889Y1428750D01*
X13369445Y1428750D02*
X13369445Y2428750D01*
X13273889Y2285417D01*
X13179445Y2190972D01*
X13083889Y2143194D01*
X14055000Y2428750D02*
X14721667Y2428750D01*
X14292778Y1428750D01*
X25701389Y15176806D02*
X25653611Y15129028D01*
X25511389Y15081250D01*
X25415833Y15081250D01*
X25272500Y15129028D01*
X25178056Y15224583D01*
X25130278Y15319028D01*
X25082500Y15510139D01*
X25082500Y15652361D01*
X25130278Y15843472D01*
X25178056Y15937917D01*
X25272500Y16033472D01*
X25415833Y16081250D01*
X25511389Y16081250D01*
X25653611Y16033472D01*
X25701389Y15985694D01*
X26672500Y15081250D02*
X26101389Y15081250D01*
X26386945Y15081250D02*
X26386945Y16081250D01*
X26291389Y15937917D01*
X26196945Y15843472D01*
X26101389Y15795694D01*
X19779861Y1746250D02*
X19446528Y2222917D01*
X19208750Y1746250D02*
X19208750Y2746250D01*
X19589861Y2746250D01*
X19685417Y2698472D01*
X19732083Y2650694D01*
X19779861Y2556250D01*
X19779861Y2412917D01*
X19732083Y2317361D01*
X19685417Y2269583D01*
X19589861Y2222917D01*
X19208750Y2222917D01*
X20750972Y1746250D02*
X20179861Y1746250D01*
X20465417Y1746250D02*
X20465417Y2746250D01*
X20369861Y2602917D01*
X20275417Y2508472D01*
X20179861Y2460694D01*
X21198750Y2650694D02*
X21246528Y2698472D01*
X21340972Y2746250D01*
X21579861Y2746250D01*
X21674305Y2698472D01*
X21722083Y2650694D01*
X21769861Y2556250D01*
X21769861Y2460694D01*
X21722083Y2317361D01*
X21150972Y1746250D01*
X21769861Y1746250D01*
X53467000Y349250D02*
X52467000Y349250D01*
X52467000Y730361D01*
X52514778Y825917D01*
X52562556Y872583D01*
X52657000Y920361D01*
X52800333Y920361D01*
X52895889Y872583D01*
X52943667Y825917D01*
X52990333Y730361D01*
X52990333Y349250D01*
X53181444Y1415917D02*
X53181444Y1891472D01*
X53467000Y1320361D02*
X52467000Y1653694D01*
X53467000Y1987028D01*
X53467000Y2387028D02*
X52467000Y2387028D01*
X52467000Y2624806D01*
X52514778Y2768139D01*
X52610333Y2863695D01*
X52704778Y2910361D01*
X52895889Y2958139D01*
X53038111Y2958139D01*
X53229222Y2910361D01*
X53323667Y2863695D01*
X53419222Y2768139D01*
X53467000Y2624806D01*
X53467000Y2387028D01*
X52562556Y3405917D02*
X52514778Y3453695D01*
X52467000Y3548139D01*
X52467000Y3787028D01*
X52514778Y3881472D01*
X52562556Y3929250D01*
X52657000Y3977028D01*
X52752556Y3977028D01*
X52895889Y3929250D01*
X53467000Y3358139D01*
X53467000Y3977028D01*
X21748750Y12794861D02*
X21272083Y12461528D01*
X21748750Y12223750D02*
X20748750Y12223750D01*
X20748750Y12604861D01*
X20796528Y12700417D01*
X20844306Y12747083D01*
X20938750Y12794861D01*
X21082083Y12794861D01*
X21177639Y12747083D01*
X21225417Y12700417D01*
X21272083Y12604861D01*
X21272083Y12223750D01*
X21748750Y13765972D02*
X21748750Y13194861D01*
X21748750Y13480417D02*
X20748750Y13480417D01*
X20892083Y13384861D01*
X20986528Y13290417D01*
X21034306Y13194861D01*
X20748750Y14403750D02*
X20748750Y14499305D01*
X20796528Y14594861D01*
X20844306Y14642639D01*
X20938750Y14689305D01*
X21129861Y14737083D01*
X21367639Y14737083D01*
X21558750Y14689305D01*
X21653194Y14642639D01*
X21700972Y14594861D01*
X21748750Y14499305D01*
X21748750Y14403750D01*
X21700972Y14309305D01*
X21653194Y14261528D01*
X21558750Y14213750D01*
X21367639Y14165972D01*
X21129861Y14165972D01*
X20938750Y14213750D01*
X20844306Y14261528D01*
X20796528Y14309305D01*
X20748750Y14403750D01*
X45068889Y3429306D02*
X45021111Y3381528D01*
X44878889Y3333750D01*
X44783333Y3333750D01*
X44640000Y3381528D01*
X44545556Y3477083D01*
X44497778Y3571528D01*
X44450000Y3762639D01*
X44450000Y3904861D01*
X44497778Y4095972D01*
X44545556Y4190417D01*
X44640000Y4285972D01*
X44783333Y4333750D01*
X44878889Y4333750D01*
X45021111Y4285972D01*
X45068889Y4238194D01*
X45564445Y3333750D02*
X45754445Y3333750D01*
X45850000Y3381528D01*
X45897778Y3429306D01*
X45992222Y3571528D01*
X46040000Y3762639D01*
X46040000Y4143750D01*
X45992222Y4238194D01*
X45945556Y4285972D01*
X45850000Y4333750D01*
X45658889Y4333750D01*
X45564445Y4285972D01*
X45516667Y4238194D01*
X45468889Y4143750D01*
X45468889Y3904861D01*
X45516667Y3810417D01*
X45564445Y3762639D01*
X45658889Y3714861D01*
X45850000Y3714861D01*
X45945556Y3762639D01*
X45992222Y3810417D01*
X46040000Y3904861D01*
X42211389Y15176806D02*
X42163611Y15129028D01*
X42021389Y15081250D01*
X41925833Y15081250D01*
X41782500Y15129028D01*
X41688056Y15224583D01*
X41640278Y15319028D01*
X41592500Y15510139D01*
X41592500Y15652361D01*
X41640278Y15843472D01*
X41688056Y15937917D01*
X41782500Y16033472D01*
X41925833Y16081250D01*
X42021389Y16081250D01*
X42163611Y16033472D01*
X42211389Y15985694D01*
X42611389Y16081250D02*
X43230278Y16081250D01*
X42896945Y15700139D01*
X43040278Y15700139D01*
X43134722Y15652361D01*
X43182500Y15604583D01*
X43230278Y15510139D01*
X43230278Y15271250D01*
X43182500Y15176806D01*
X43134722Y15129028D01*
X43040278Y15081250D01*
X42754722Y15081250D01*
X42659167Y15129028D01*
X42611389Y15176806D01*
X26018889Y4540556D02*
X25971111Y4492778D01*
X25828889Y4445000D01*
X25733333Y4445000D01*
X25590000Y4492778D01*
X25495556Y4588333D01*
X25447778Y4682778D01*
X25400000Y4873889D01*
X25400000Y5016111D01*
X25447778Y5207222D01*
X25495556Y5301667D01*
X25590000Y5397222D01*
X25733333Y5445000D01*
X25828889Y5445000D01*
X25971111Y5397222D01*
X26018889Y5349444D01*
X26895556Y5111667D02*
X26895556Y4445000D01*
X26656667Y5492778D02*
X26418889Y4778333D01*
X27037778Y4778333D01*
X38036111Y8731250D02*
X37702778Y9207917D01*
X37465000Y8731250D02*
X37465000Y9731250D01*
X37846111Y9731250D01*
X37941667Y9683472D01*
X37988333Y9635694D01*
X38036111Y9541250D01*
X38036111Y9397917D01*
X37988333Y9302361D01*
X37941667Y9254583D01*
X37846111Y9207917D01*
X37465000Y9207917D01*
X38959444Y9731250D02*
X38483889Y9731250D01*
X38436111Y9254583D01*
X38483889Y9302361D01*
X38579444Y9350139D01*
X38817222Y9350139D01*
X38912778Y9302361D01*
X38959444Y9254583D01*
X39007222Y9160139D01*
X39007222Y8921250D01*
X38959444Y8826806D01*
X38912778Y8779028D01*
X38817222Y8731250D01*
X38579444Y8731250D01*
X38483889Y8779028D01*
X38436111Y8826806D01*
X33337500Y9636000D02*
X33337500Y8826000D01*
X33385278Y8731556D01*
X33433056Y8683778D01*
X33527500Y8636000D01*
X33718611Y8636000D01*
X33814167Y8683778D01*
X33860833Y8731556D01*
X33908611Y8826000D01*
X33908611Y9636000D01*
X34356389Y9540444D02*
X34404167Y9588222D01*
X34498611Y9636000D01*
X34737500Y9636000D01*
X34831944Y9588222D01*
X34879722Y9540444D01*
X34927500Y9446000D01*
X34927500Y9350444D01*
X34879722Y9207111D01*
X34308611Y8636000D01*
X34927500Y8636000D01*
X22796111Y2063750D02*
X22462778Y2540417D01*
X22225000Y2063750D02*
X22225000Y3063750D01*
X22606111Y3063750D01*
X22701667Y3015972D01*
X22748333Y2968194D01*
X22796111Y2873750D01*
X22796111Y2730417D01*
X22748333Y2634861D01*
X22701667Y2587083D01*
X22606111Y2540417D01*
X22225000Y2540417D01*
X23243889Y2968194D02*
X23291667Y3015972D01*
X23386111Y3063750D01*
X23625000Y3063750D01*
X23719444Y3015972D01*
X23767222Y2968194D01*
X23815000Y2873750D01*
X23815000Y2778194D01*
X23767222Y2634861D01*
X23196111Y2063750D01*
X23815000Y2063750D01*
X10302639Y2159306D02*
X10254861Y2111528D01*
X10112639Y2063750D01*
X10017083Y2063750D01*
X9873750Y2111528D01*
X9779306Y2207083D01*
X9731528Y2301528D01*
X9683750Y2492639D01*
X9683750Y2634861D01*
X9731528Y2825972D01*
X9779306Y2920417D01*
X9873750Y3015972D01*
X10017083Y3063750D01*
X10112639Y3063750D01*
X10254861Y3015972D01*
X10302639Y2968194D01*
X11273750Y2063750D02*
X10702639Y2063750D01*
X10988195Y2063750D02*
X10988195Y3063750D01*
X10892639Y2920417D01*
X10798195Y2825972D01*
X10702639Y2778194D01*
X12150417Y3063750D02*
X11959306Y3063750D01*
X11863750Y3015972D01*
X11817083Y2968194D01*
X11721528Y2825972D01*
X11673750Y2634861D01*
X11673750Y2253750D01*
X11721528Y2159306D01*
X11769306Y2111528D01*
X11863750Y2063750D01*
X12054861Y2063750D01*
X12150417Y2111528D01*
X12197083Y2159306D01*
X12244861Y2253750D01*
X12244861Y2492639D01*
X12197083Y2587083D01*
X12150417Y2634861D01*
X12054861Y2682639D01*
X11863750Y2682639D01*
X11769306Y2634861D01*
X11721528Y2587083D01*
X11673750Y2492639D01*
X37623750Y14287500D02*
X37623750Y15287500D01*
X37861528Y15287500D01*
X38004861Y15239722D01*
X38100417Y15144167D01*
X38147083Y15049722D01*
X38194861Y14858611D01*
X38194861Y14716389D01*
X38147083Y14525278D01*
X38100417Y14430833D01*
X38004861Y14335278D01*
X37861528Y14287500D01*
X37623750Y14287500D01*
X38642639Y15191944D02*
X38690417Y15239722D01*
X38784861Y15287500D01*
X39023750Y15287500D01*
X39118194Y15239722D01*
X39165972Y15191944D01*
X39213750Y15097500D01*
X39213750Y15001944D01*
X39165972Y14858611D01*
X38594861Y14287500D01*
X39213750Y14287500D01*
X34273889Y4699306D02*
X34226111Y4651528D01*
X34083889Y4603750D01*
X33988333Y4603750D01*
X33845000Y4651528D01*
X33750556Y4747083D01*
X33702778Y4841528D01*
X33655000Y5032639D01*
X33655000Y5174861D01*
X33702778Y5365972D01*
X33750556Y5460417D01*
X33845000Y5555972D01*
X33988333Y5603750D01*
X34083889Y5603750D01*
X34226111Y5555972D01*
X34273889Y5508194D01*
X35197222Y5603750D02*
X34721667Y5603750D01*
X34673889Y5127083D01*
X34721667Y5174861D01*
X34817222Y5222639D01*
X35055000Y5222639D01*
X35150556Y5174861D01*
X35197222Y5127083D01*
X35245000Y5032639D01*
X35245000Y4793750D01*
X35197222Y4699306D01*
X35150556Y4651528D01*
X35055000Y4603750D01*
X34817222Y4603750D01*
X34721667Y4651528D01*
X34673889Y4699306D01*
X25082500Y9636000D02*
X25082500Y8826000D01*
X25130278Y8731556D01*
X25178056Y8683778D01*
X25272500Y8636000D01*
X25463611Y8636000D01*
X25559167Y8683778D01*
X25605833Y8731556D01*
X25653611Y8826000D01*
X25653611Y9636000D01*
X26624722Y8636000D02*
X26053611Y8636000D01*
X26339167Y8636000D02*
X26339167Y9636000D01*
X26243611Y9492667D01*
X26149167Y9398222D01*
X26053611Y9350444D01*
X41592500Y9636000D02*
X41592500Y8826000D01*
X41640278Y8731556D01*
X41688056Y8683778D01*
X41782500Y8636000D01*
X41973611Y8636000D01*
X42069167Y8683778D01*
X42115833Y8731556D01*
X42163611Y8826000D01*
X42163611Y9636000D01*
X42563611Y9636000D02*
X43182500Y9636000D01*
X42849167Y9254889D01*
X42992500Y9254889D01*
X43086944Y9207111D01*
X43134722Y9159333D01*
X43182500Y9064889D01*
X43182500Y8826000D01*
X43134722Y8731556D01*
X43086944Y8683778D01*
X42992500Y8636000D01*
X42706944Y8636000D01*
X42611389Y8683778D01*
X42563611Y8731556D01*
X18732917Y317500D02*
X18256250Y317500D01*
X18256250Y1317500D01*
X19704028Y317500D02*
X19132917Y317500D01*
X19418473Y317500D02*
X19418473Y1317500D01*
X19322917Y1174167D01*
X19228473Y1079722D01*
X19132917Y1031944D01*
X45720000Y14287500D02*
X45720000Y15287500D01*
X45957778Y15287500D01*
X46101111Y15239722D01*
X46196667Y15144167D01*
X46243333Y15049722D01*
X46291111Y14858611D01*
X46291111Y14716389D01*
X46243333Y14525278D01*
X46196667Y14430833D01*
X46101111Y14335278D01*
X45957778Y14287500D01*
X45720000Y14287500D01*
X46691111Y15287500D02*
X47310000Y15287500D01*
X46976667Y14906389D01*
X47120000Y14906389D01*
X47214444Y14858611D01*
X47262222Y14810833D01*
X47310000Y14716389D01*
X47310000Y14477500D01*
X47262222Y14383056D01*
X47214444Y14335278D01*
X47120000Y14287500D01*
X46834444Y14287500D01*
X46738889Y14335278D01*
X46691111Y14383056D01*
X8873889Y13906806D02*
X8826111Y13859028D01*
X8683889Y13811250D01*
X8588333Y13811250D01*
X8445000Y13859028D01*
X8350556Y13954583D01*
X8302778Y14049028D01*
X8255000Y14240139D01*
X8255000Y14382361D01*
X8302778Y14573472D01*
X8350556Y14667917D01*
X8445000Y14763472D01*
X8588333Y14811250D01*
X8683889Y14811250D01*
X8826111Y14763472D01*
X8873889Y14715694D01*
X9845000Y13811250D02*
X9273889Y13811250D01*
X9559445Y13811250D02*
X9559445Y14811250D01*
X9463889Y14667917D01*
X9369445Y14573472D01*
X9273889Y14525694D01*
X10245000Y14811250D02*
X10863889Y14811250D01*
X10530556Y14430139D01*
X10673889Y14430139D01*
X10768333Y14382361D01*
X10816111Y14334583D01*
X10863889Y14240139D01*
X10863889Y14001250D01*
X10816111Y13906806D01*
X10768333Y13859028D01*
X10673889Y13811250D01*
X10388333Y13811250D01*
X10292778Y13859028D01*
X10245000Y13906806D01*
X3268472Y8325000D02*
X3316250Y8468333D01*
X3316250Y8706111D01*
X3268472Y8801667D01*
X3220694Y8848333D01*
X3126250Y8896111D01*
X3030694Y8896111D01*
X2935139Y8848333D01*
X2887361Y8801667D01*
X2839583Y8706111D01*
X2792917Y8515000D01*
X2745139Y8420556D01*
X2697361Y8372778D01*
X2601806Y8325000D01*
X2506250Y8325000D01*
X2411806Y8372778D01*
X2364028Y8420556D01*
X2316250Y8515000D01*
X2316250Y8753889D01*
X2364028Y8896111D01*
X2316250Y9296111D02*
X2316250Y9867222D01*
X3316250Y9581667D02*
X2316250Y9581667D01*
X3316250Y10838333D02*
X3316250Y10267222D01*
X3316250Y10552778D02*
X2316250Y10552778D01*
X2459583Y10457222D01*
X2554028Y10362778D01*
X2601806Y10267222D01*
X31051111Y793750D02*
X30717778Y1270417D01*
X30480000Y793750D02*
X30480000Y1793750D01*
X30861111Y1793750D01*
X30956667Y1745972D01*
X31003333Y1698194D01*
X31051111Y1603750D01*
X31051111Y1460417D01*
X31003333Y1364861D01*
X30956667Y1317083D01*
X30861111Y1270417D01*
X30480000Y1270417D01*
X31641111Y1364861D02*
X31546667Y1412639D01*
X31498889Y1460417D01*
X31451111Y1555972D01*
X31451111Y1603750D01*
X31498889Y1698194D01*
X31546667Y1745972D01*
X31641111Y1793750D01*
X31832222Y1793750D01*
X31927778Y1745972D01*
X31974444Y1698194D01*
X32022222Y1603750D01*
X32022222Y1555972D01*
X31974444Y1460417D01*
X31927778Y1412639D01*
X31832222Y1364861D01*
X31641111Y1364861D01*
X31546667Y1317083D01*
X31498889Y1270417D01*
X31451111Y1174861D01*
X31451111Y983750D01*
X31498889Y889306D01*
X31546667Y841528D01*
X31641111Y793750D01*
X31832222Y793750D01*
X31927778Y841528D01*
X31974444Y889306D01*
X32022222Y983750D01*
X32022222Y1174861D01*
X31974444Y1270417D01*
X31927778Y1317083D01*
X31832222Y1364861D01*
X31051111Y4445000D02*
X30717778Y4921667D01*
X30480000Y4445000D02*
X30480000Y5445000D01*
X30861111Y5445000D01*
X30956667Y5397222D01*
X31003333Y5349444D01*
X31051111Y5255000D01*
X31051111Y5111667D01*
X31003333Y5016111D01*
X30956667Y4968333D01*
X30861111Y4921667D01*
X30480000Y4921667D01*
X31927778Y5111667D02*
X31927778Y4445000D01*
X31688889Y5492778D02*
X31451111Y4778333D01*
X32070000Y4778333D01*
X14747639Y2953056D02*
X14699861Y2905278D01*
X14557639Y2857500D01*
X14462083Y2857500D01*
X14318750Y2905278D01*
X14224306Y3000833D01*
X14176528Y3095278D01*
X14128750Y3286389D01*
X14128750Y3428611D01*
X14176528Y3619722D01*
X14224306Y3714167D01*
X14318750Y3809722D01*
X14462083Y3857500D01*
X14557639Y3857500D01*
X14699861Y3809722D01*
X14747639Y3761944D01*
X15718750Y2857500D02*
X15147639Y2857500D01*
X15433195Y2857500D02*
X15433195Y3857500D01*
X15337639Y3714167D01*
X15243195Y3619722D01*
X15147639Y3571944D01*
X16308750Y3428611D02*
X16214306Y3476389D01*
X16166528Y3524167D01*
X16118750Y3619722D01*
X16118750Y3667500D01*
X16166528Y3761944D01*
X16214306Y3809722D01*
X16308750Y3857500D01*
X16499861Y3857500D01*
X16595417Y3809722D01*
X16642083Y3761944D01*
X16689861Y3667500D01*
X16689861Y3619722D01*
X16642083Y3524167D01*
X16595417Y3476389D01*
X16499861Y3428611D01*
X16308750Y3428611D01*
X16214306Y3380833D01*
X16166528Y3334167D01*
X16118750Y3238611D01*
X16118750Y3047500D01*
X16166528Y2953056D01*
X16214306Y2905278D01*
X16308750Y2857500D01*
X16499861Y2857500D01*
X16595417Y2905278D01*
X16642083Y2953056D01*
X16689861Y3047500D01*
X16689861Y3238611D01*
X16642083Y3334167D01*
X16595417Y3380833D01*
X16499861Y3428611D01*
X33797639Y15176806D02*
X33749861Y15129028D01*
X33607639Y15081250D01*
X33512083Y15081250D01*
X33368750Y15129028D01*
X33274306Y15224583D01*
X33226528Y15319028D01*
X33178750Y15510139D01*
X33178750Y15652361D01*
X33226528Y15843472D01*
X33274306Y15937917D01*
X33368750Y16033472D01*
X33512083Y16081250D01*
X33607639Y16081250D01*
X33749861Y16033472D01*
X33797639Y15985694D01*
X34245417Y15985694D02*
X34293195Y16033472D01*
X34387639Y16081250D01*
X34626528Y16081250D01*
X34720972Y16033472D01*
X34768750Y15985694D01*
X34816528Y15891250D01*
X34816528Y15795694D01*
X34768750Y15652361D01*
X34197639Y15081250D01*
X34816528Y15081250D01*
X48109029Y1464306D02*
X48061251Y1416528D01*
X47919029Y1368750D01*
X47823473Y1368750D01*
X47680140Y1416528D01*
X47585696Y1512083D01*
X47537918Y1606528D01*
X47490140Y1797639D01*
X47490140Y1939861D01*
X47537918Y2130972D01*
X47585696Y2225417D01*
X47680140Y2320972D01*
X47823473Y2368750D01*
X47919029Y2368750D01*
X48061251Y2320972D01*
X48109029Y2273194D01*
X49080140Y1368750D02*
X48509029Y1368750D01*
X48794585Y1368750D02*
X48794585Y2368750D01*
X48699029Y2225417D01*
X48604585Y2130972D01*
X48509029Y2083194D01*
X49717918Y2368750D02*
X49813473Y2368750D01*
X49909029Y2320972D01*
X49956807Y2273194D01*
X50003473Y2178750D01*
X50051251Y1987639D01*
X50051251Y1749861D01*
X50003473Y1558750D01*
X49956807Y1464306D01*
X49909029Y1416528D01*
X49813473Y1368750D01*
X49717918Y1368750D01*
X49623473Y1416528D01*
X49575696Y1464306D01*
X49527918Y1558750D01*
X49480140Y1749861D01*
X49480140Y1987639D01*
X49527918Y2178750D01*
X49575696Y2273194D01*
X49623473Y2320972D01*
X49717918Y2368750D01*
X20097361Y5238750D02*
X19764028Y5715417D01*
X19526250Y5238750D02*
X19526250Y6238750D01*
X19907361Y6238750D01*
X20002917Y6190972D01*
X20049583Y6143194D01*
X20097361Y6048750D01*
X20097361Y5905417D01*
X20049583Y5809861D01*
X20002917Y5762083D01*
X19907361Y5715417D01*
X19526250Y5715417D01*
X20497361Y6238750D02*
X21164028Y6238750D01*
X20735139Y5238750D01*
%LPC*%
D19*
X55880000Y14605000D03*
D20*
X30795000Y13800000D03*
X29845000Y11600000D03*
X28895000Y13800000D03*
D21*
X3016250Y1270000D03*
D22*
X7722500Y952500D03*
X9422500Y952500D03*
D23*
X9470000Y6322500D03*
D24*
X14720000Y13072500D03*
D23*
X9470000Y7322500D03*
D24*
X11720000Y13072500D03*
D23*
X9470000Y10322500D03*
X18470000Y9822500D03*
X18470000Y7322500D03*
D24*
X12720000Y4072500D03*
X13720000Y13072500D03*
X14720000Y4072500D03*
D23*
X18470000Y7822500D03*
X9470000Y9322500D03*
D24*
X12220000Y4072500D03*
X16720000Y13072500D03*
D23*
X18470000Y5822500D03*
D24*
X11220000Y4072500D03*
X11220000Y13072500D03*
D23*
X9470000Y5822500D03*
D24*
X16220000Y13072500D03*
D23*
X9470000Y11322500D03*
X9470000Y8322500D03*
X9470000Y7822500D03*
X9470000Y9822500D03*
D24*
X14220000Y13072500D03*
D23*
X18470000Y10322500D03*
D24*
X13720000Y4072500D03*
D23*
X18470000Y6822500D03*
D24*
X15720000Y4072500D03*
D23*
X18470000Y8822500D03*
D24*
X16220000Y4072500D03*
X13220000Y4072500D03*
D23*
X9470000Y8822500D03*
D24*
X15720000Y13072500D03*
D23*
X9470000Y10822500D03*
X9470000Y6822500D03*
X18470000Y11322500D03*
D24*
X15220000Y13072500D03*
X13220000Y13072500D03*
D23*
X18470000Y9322500D03*
D24*
X12220000Y13072500D03*
D23*
X18470000Y8322500D03*
X18470000Y10822500D03*
D24*
X14220000Y4072500D03*
X16720000Y4072500D03*
X12720000Y13072500D03*
D23*
X18470000Y6322500D03*
D24*
X15220000Y4072500D03*
X11720000Y4072500D03*
D25*
X38520000Y2540000D03*
X40220000Y2540000D03*
D26*
X55880000Y10795000D03*
D27*
X55880000Y5715000D03*
D22*
X50697500Y11430000D03*
X48997500Y11430000D03*
D25*
X20002500Y8787500D03*
X20002500Y7087500D03*
X38520000Y3810000D03*
X40220000Y3810000D03*
X20002500Y10262500D03*
X20002500Y11962500D03*
D22*
X22225000Y8787500D03*
X22225000Y7087500D03*
X41695000Y3810000D03*
X43395000Y3810000D03*
X8992500Y4127500D03*
X10692500Y4127500D03*
D25*
X19582500Y3810000D03*
X17882500Y3810000D03*
D28*
X52946500Y7143750D03*
D29*
X46748500Y9454750D03*
X46748500Y4832750D03*
X46748500Y7143750D03*
D22*
X29845000Y8470000D03*
X29845000Y6770000D03*
X12802500Y793750D03*
X14502500Y793750D03*
X24708750Y14287500D03*
X26408750Y14287500D03*
D25*
X18947500Y2222500D03*
X17247500Y2222500D03*
D19*
X55880000Y1905000D03*
D22*
X21272500Y10262500D03*
X21272500Y11962500D03*
D25*
X45085000Y3072500D03*
X45085000Y1372500D03*
D22*
X41218750Y14287500D03*
X42918750Y14287500D03*
X25185000Y3810000D03*
X26885000Y3810000D03*
X38100000Y8470000D03*
X38100000Y6770000D03*
D30*
X32067500Y12280900D03*
X35877500Y6134100D03*
X32067500Y6134100D03*
X34607500Y12280900D03*
X33337500Y12280900D03*
X34607500Y6134100D03*
X33337500Y6134100D03*
X35877500Y12280900D03*
D25*
X22010000Y3810000D03*
X23710000Y3810000D03*
D22*
X7722500Y2540000D03*
X9422500Y2540000D03*
D20*
X39050000Y13800000D03*
X38100000Y11600000D03*
X37150000Y13800000D03*
D22*
X33440000Y3810000D03*
X35140000Y3810000D03*
D30*
X23812500Y12280900D03*
X27622500Y6134100D03*
X23812500Y6134100D03*
X26352500Y12280900D03*
X25082500Y12280900D03*
X26352500Y6134100D03*
X25082500Y6134100D03*
X27622500Y12280900D03*
X40322500Y12280900D03*
X44132500Y6134100D03*
X40322500Y6134100D03*
X42862500Y12280900D03*
X41592500Y12280900D03*
X42862500Y6134100D03*
X41592500Y6134100D03*
X44132500Y12280900D03*
D31*
X15827500Y793750D03*
X17827500Y793750D03*
D20*
X47305000Y13800000D03*
X46355000Y11600000D03*
X45405000Y13800000D03*
D22*
X10057500Y13017500D03*
X8357500Y13017500D03*
D32*
X5357500Y12650000D03*
X5357500Y8900000D03*
D33*
X2232500Y3900000D03*
D32*
X5357500Y7650000D03*
X5357500Y11400000D03*
X5357500Y6400000D03*
D33*
X2232500Y15150000D03*
D32*
X5357500Y10150000D03*
D25*
X30265000Y2540000D03*
X31965000Y2540000D03*
X30265000Y3810000D03*
X31965000Y3810000D03*
D22*
X14072500Y2222500D03*
X15772500Y2222500D03*
X32963750Y14287500D03*
X34663750Y14287500D03*
D34*
X50420000Y1905000D03*
X47370000Y1905000D03*
D25*
X21057500Y5715000D03*
X22757500Y5715000D03*
D35*
X10953750Y2857500D03*
X27622500Y14128750D03*
X35877500Y14128750D03*
X44132500Y14128750D03*
X4762500Y3016250D03*
G04 --- BOARD END --- *
%TF.MD5,b3afe85602f6c3109a248341a4512b7d*%
M02*
