G04 --- HEADER BEGIN --- *
%TF.GenerationSoftware,LibrePCB,LibrePCB,0.1.0*%
%TF.CreationDate,2018-04-15T17:46:50*%
%TF.ProjectId,Demo Brushless Controller Project - default,ace706f3-b818-4ce9-86ab-e3185109c18f,v1*%
%TF.Part,Single*%
%FSLAX66Y66*%
%MOMM*%
G01*
G74*
G04 --- HEADER END --- *
G04 --- APERTURE LIST BEGIN --- *
%ADD10C,0.0*%
%ADD11C,0.2032*%
%ADD12C,0.0508*%
%ADD13C,0.1524*%
%ADD14C,0.127*%
%ADD15C,0.1016*%
%ADD16C,0.9144X0.6096*%
%ADD17C,0.2*%
%ADD18P,2.74X8X22.5*%
%ADD19R,1.2X1.3*%
%ADD20R,1.4X1.4*%
%ADD21C,2.74*%
%ADD22P,2.74X8X292.5*%
%ADD23R,0.9X1.6*%
%ADD24R,5.2X4.5*%
%ADD25R,2.2X1.0*%
%ADD26R,3.2X2.3*%
%ADD27R,1.3X1.2*%
%ADD28R,2.74X5.28*%
%ADD29R,2.6X2.4*%
%ADD30R,2.36X1.98*%
%ADD31R,5.28X2.0288*%
%ADD32R,2.232X0.8604*%
%ADD33R,3.4X5.2*%
%ADD34C,1.2*%
G04 --- APERTURE LIST END --- *
G04 --- BOARD BEGIN --- *
D10*
X6667500Y15915000D02*
X6667500Y15765000D01*
X6367500Y15765000D01*
X6367500Y15915000D01*
X6667500Y15915000D01*
G36*
X6667500Y15915000D02*
X6667500Y15765000D01*
X6367500Y15765000D01*
X6367500Y15915000D01*
X6667500Y15915000D01*
G37*
X6667500Y14715000D02*
X6667500Y14565000D01*
X6367500Y14565000D01*
X6367500Y14715000D01*
X6667500Y14715000D01*
G36*
X6667500Y14715000D02*
X6667500Y14565000D01*
X6367500Y14565000D01*
X6367500Y14715000D01*
X6667500Y14715000D01*
G37*
X6667500Y15390000D02*
X6667500Y15090000D01*
X6367500Y15090000D01*
X6367500Y15390000D01*
X6667500Y15390000D01*
G36*
X6667500Y15390000D02*
X6667500Y15090000D01*
X6367500Y15090000D01*
X6367500Y15390000D01*
X6667500Y15390000D01*
G37*
D11*
X26530000Y3447500D02*
X26530000Y4172500D01*
X21730000Y4172500D02*
X21730000Y3447500D01*
X4232500Y11530000D02*
X4232500Y11005000D01*
X4232500Y11005000D02*
X4232500Y5505000D01*
X4232500Y5505000D02*
X4232500Y4980000D01*
X4232500Y4980000D02*
X232500Y4980000D01*
X232500Y4980000D02*
X232500Y5130000D01*
X232500Y5130000D02*
X232500Y11380000D01*
X232500Y11380000D02*
X232500Y11530000D01*
X232500Y11530000D02*
X4232500Y11530000D01*
D12*
X1232500Y11505000D02*
X1232500Y11005000D01*
X1232500Y11005000D02*
X1232500Y10755000D01*
X1232500Y10755000D02*
X1857500Y10755000D01*
X1857500Y10755000D02*
X1857500Y5755000D01*
X1232500Y5755000D02*
X1232500Y5505000D01*
X1232500Y5505000D02*
X1232500Y5005000D01*
X1232500Y5755000D02*
X1857500Y5755000D01*
X3607500Y11505000D02*
X3607500Y11005000D01*
X3607500Y11005000D02*
X4232500Y11005000D01*
X3607500Y5505000D02*
X3607500Y5005000D01*
X3607500Y5505000D02*
X4232500Y5505000D01*
X1232500Y11005000D02*
X607500Y11005000D01*
X607500Y11005000D02*
X607500Y5505000D01*
X607500Y5505000D02*
X1232500Y5505000D01*
X607500Y11005000D02*
X232500Y11380000D01*
X607500Y5505000D02*
X232500Y5130000D01*
X4107500Y10380000D02*
X3607500Y10380000D01*
X3607500Y10380000D02*
X3607500Y9880000D01*
X3607500Y9880000D02*
X4107500Y9880000D01*
X4107500Y9130000D02*
X3607500Y9130000D01*
X3607500Y9130000D02*
X3607500Y8630000D01*
X3607500Y8630000D02*
X4107500Y8630000D01*
X4107500Y7880000D02*
X3607500Y7880000D01*
X3607500Y7880000D02*
X3607500Y7380000D01*
X3607500Y7380000D02*
X4107500Y7380000D01*
X4107500Y6630000D02*
X3607500Y6630000D01*
X3607500Y6630000D02*
X3607500Y6130000D01*
X3607500Y6130000D02*
X4107500Y6130000D01*
D10*
X1857500Y10380000D02*
X1857500Y9880000D01*
X982500Y9880000D01*
X982500Y10380000D01*
X1857500Y10380000D01*
G36*
X1857500Y10380000D02*
X1857500Y9880000D01*
X982500Y9880000D01*
X982500Y10380000D01*
X1857500Y10380000D01*
G37*
X1857500Y9130000D02*
X1857500Y8630000D01*
X982500Y8630000D01*
X982500Y9130000D01*
X1857500Y9130000D01*
G36*
X1857500Y9130000D02*
X1857500Y8630000D01*
X982500Y8630000D01*
X982500Y9130000D01*
X1857500Y9130000D01*
G37*
X1857500Y7880000D02*
X1857500Y7380000D01*
X982500Y7380000D01*
X982500Y7880000D01*
X1857500Y7880000D01*
G36*
X1857500Y7880000D02*
X1857500Y7380000D01*
X982500Y7380000D01*
X982500Y7880000D01*
X1857500Y7880000D01*
G37*
X1857500Y6630000D02*
X1857500Y6130000D01*
X982500Y6130000D01*
X982500Y6630000D01*
X1857500Y6630000D01*
G36*
X1857500Y6630000D02*
X1857500Y6130000D01*
X982500Y6130000D01*
X982500Y6630000D01*
X1857500Y6630000D01*
G37*
D11*
X26530000Y11067500D02*
X26530000Y11792500D01*
X21730000Y11792500D02*
X21730000Y11067500D01*
X34785000Y3447500D02*
X34785000Y4172500D01*
X29985000Y4172500D02*
X29985000Y3447500D01*
X34785000Y11067500D02*
X34785000Y11792500D01*
X29985000Y11792500D02*
X29985000Y11067500D01*
D13*
X38036500Y6096000D02*
X38036500Y11684000D01*
X34988500Y11684000D01*
X34988500Y6096000D01*
X38036500Y6096000D01*
X46291500Y6096000D02*
X46291500Y11684000D01*
X43243500Y11684000D01*
X43243500Y6096000D01*
X46291500Y6096000D01*
D11*
X43040000Y11067500D02*
X43040000Y11792500D01*
X38240000Y11792500D02*
X38240000Y11067500D01*
D14*
X11588750Y7025000D02*
X9048750Y7025000D01*
X9048750Y7025000D02*
X8718750Y7302500D01*
X8718750Y7302500D02*
X8718750Y11747500D01*
X8718750Y11747500D02*
X9048750Y12025000D01*
X9048750Y12025000D02*
X11588750Y12025000D01*
X11588750Y12025000D02*
X11918750Y11747500D01*
X11918750Y11747500D02*
X11918750Y7302500D01*
X11918750Y7302500D02*
X11588750Y7025000D01*
D15*
X50785000Y6650000D02*
X54625000Y6650000D01*
X54625000Y11130000D01*
X50785000Y11130000D01*
X50785000Y6650000D01*
D11*
X43040000Y3447500D02*
X43040000Y4172500D01*
X38240000Y4172500D02*
X38240000Y3447500D01*
D13*
X222250Y101600D02*
X5810250Y101600D01*
X5810250Y2438400D01*
X222250Y2438400D01*
X222250Y101600D01*
D12*
X13665200Y5397500D02*
X13665200Y317500D01*
D13*
X10287000Y5397500D02*
G03*
X10033000Y5143500I0J254000D01*
G01*
X10033000Y4254500D02*
X10033000Y4000500D01*
X10033000Y2984500D02*
X10033000Y2730500D01*
X10033000Y1714500D02*
X10033000Y1460500D01*
X10033000Y571500D02*
G03*
X10287000Y317500I254000J0D01*
G01*
X14097000Y4254500D02*
X14097000Y4000500D01*
X14097000Y2984500D02*
X14097000Y2730500D01*
X14097000Y1714500D02*
X14097000Y1460500D01*
X14097000Y571500D02*
G02*
X13843000Y317500I254000J0D01*
G01*
X10287000Y317500D02*
X13843000Y317500D01*
X10287000Y5397500D02*
X13843000Y5397500D01*
X13843000Y5397500D02*
G02*
X14097000Y5143500I0J254000D01*
G01*
D16*
X13081000Y4635500D03*
D10*
X2222500Y15915000D02*
X2222500Y15765000D01*
X1922500Y15765000D01*
X1922500Y15915000D01*
X2222500Y15915000D01*
G36*
X2222500Y15915000D02*
X2222500Y15765000D01*
X1922500Y15765000D01*
X1922500Y15915000D01*
X2222500Y15915000D01*
G37*
X2222500Y14715000D02*
X2222500Y14565000D01*
X1922500Y14565000D01*
X1922500Y14715000D01*
X2222500Y14715000D01*
G36*
X2222500Y14715000D02*
X2222500Y14565000D01*
X1922500Y14565000D01*
X1922500Y14715000D01*
X2222500Y14715000D01*
G37*
X2222500Y15390000D02*
X2222500Y15090000D01*
X1922500Y15090000D01*
X1922500Y15390000D01*
X2222500Y15390000D01*
G36*
X2222500Y15390000D02*
X2222500Y15090000D01*
X1922500Y15090000D01*
X1922500Y15390000D01*
X2222500Y15390000D01*
G37*
D13*
X29781500Y6096000D02*
X29781500Y11684000D01*
X26733500Y11684000D01*
X26733500Y6096000D01*
X29781500Y6096000D01*
D17*
X20563749Y13763750D02*
X20897082Y14240417D01*
X21134860Y13763750D02*
X21134860Y14763750D01*
X20753749Y14763750D01*
X20658193Y14715972D01*
X20611527Y14668194D01*
X20563749Y14573750D01*
X20563749Y14430417D01*
X20611527Y14334861D01*
X20658193Y14287083D01*
X20753749Y14240417D01*
X21134860Y14240417D01*
X20115971Y14668194D02*
X20068193Y14715972D01*
X19973749Y14763750D01*
X19734860Y14763750D01*
X19640416Y14715972D01*
X19592638Y14668194D01*
X19544860Y14573750D01*
X19544860Y14478194D01*
X19592638Y14334861D01*
X20163749Y13763750D01*
X19544860Y13763750D01*
X19049304Y13763750D02*
X18859304Y13763750D01*
X18763749Y13811528D01*
X18715971Y13859306D01*
X18621527Y14001528D01*
X18573749Y14192639D01*
X18573749Y14573750D01*
X18621527Y14668194D01*
X18668193Y14715972D01*
X18763749Y14763750D01*
X18954860Y14763750D01*
X19049304Y14715972D01*
X19097082Y14668194D01*
X19144860Y14573750D01*
X19144860Y14334861D01*
X19097082Y14240417D01*
X19049304Y14192639D01*
X18954860Y14144861D01*
X18763749Y14144861D01*
X18668193Y14192639D01*
X18621527Y14240417D01*
X18573749Y14334861D01*
X8890000Y15874583D02*
X8890000Y16351250D01*
X7890000Y16351250D01*
X8366667Y15474583D02*
X8366667Y15141250D01*
X8890000Y14997916D02*
X8890000Y15474583D01*
X7890000Y15474583D01*
X7890000Y14997916D01*
X8890000Y14597916D02*
X7890000Y14597916D01*
X7890000Y14360138D01*
X7937778Y14216805D01*
X8033333Y14121249D01*
X8127778Y14074583D01*
X8318889Y14026805D01*
X8461111Y14026805D01*
X8652222Y14074583D01*
X8746667Y14121249D01*
X8842222Y14216805D01*
X8890000Y14360138D01*
X8890000Y14597916D01*
X8890000Y13055694D02*
X8890000Y13626805D01*
X8890000Y13341249D02*
X7890000Y13341249D01*
X8033333Y13436805D01*
X8127778Y13531249D01*
X8175556Y13626805D01*
X16097639Y9525000D02*
X16430972Y10001667D01*
X16668750Y9525000D02*
X16668750Y10525000D01*
X16287639Y10525000D01*
X16192083Y10477222D01*
X16145417Y10429444D01*
X16097639Y10335000D01*
X16097639Y10191667D01*
X16145417Y10096111D01*
X16192083Y10048333D01*
X16287639Y10001667D01*
X16668750Y10001667D01*
X15126528Y9525000D02*
X15697639Y9525000D01*
X15412083Y9525000D02*
X15412083Y10525000D01*
X15507639Y10381667D01*
X15602083Y10287222D01*
X15697639Y10239444D01*
X14726528Y10525000D02*
X14107639Y10525000D01*
X14440972Y10143889D01*
X14297639Y10143889D01*
X14203195Y10096111D01*
X14155417Y10048333D01*
X14107639Y9953889D01*
X14107639Y9715000D01*
X14155417Y9620556D01*
X14203195Y9572778D01*
X14297639Y9525000D01*
X14583195Y9525000D01*
X14678750Y9572778D01*
X14726528Y9620556D01*
X24050556Y4825694D02*
X24146111Y4873472D01*
X24241667Y4969028D01*
X24383889Y5111250D01*
X24479444Y5159028D01*
X24575000Y5159028D01*
X24527222Y4921250D02*
X24621667Y4969028D01*
X24717222Y5064583D01*
X24765000Y5254583D01*
X24765000Y5587917D01*
X24717222Y5777917D01*
X24621667Y5873472D01*
X24527222Y5921250D01*
X24336111Y5921250D01*
X24241667Y5873472D01*
X24146111Y5777917D01*
X24098333Y5587917D01*
X24098333Y5254583D01*
X24146111Y5064583D01*
X24241667Y4969028D01*
X24336111Y4921250D01*
X24527222Y4921250D01*
X23602778Y5825694D02*
X23555000Y5873472D01*
X23460556Y5921250D01*
X23221667Y5921250D01*
X23127223Y5873472D01*
X23079445Y5825694D01*
X23031667Y5731250D01*
X23031667Y5635694D01*
X23079445Y5492361D01*
X23650556Y4921250D01*
X23031667Y4921250D01*
X3268472Y9475000D02*
X3316250Y9331667D01*
X3316250Y9093889D01*
X3268472Y8998333D01*
X3220694Y8951667D01*
X3126250Y8903889D01*
X3030694Y8903889D01*
X2935139Y8951667D01*
X2887361Y8998333D01*
X2839583Y9093889D01*
X2792917Y9285000D01*
X2745139Y9379444D01*
X2697361Y9427222D01*
X2601806Y9475000D01*
X2506250Y9475000D01*
X2411806Y9427222D01*
X2364028Y9379444D01*
X2316250Y9285000D01*
X2316250Y9046111D01*
X2364028Y8903889D01*
X2316250Y8503889D02*
X2316250Y7932778D01*
X3316250Y8218333D02*
X2316250Y8218333D01*
X2411806Y7485000D02*
X2364028Y7437222D01*
X2316250Y7342778D01*
X2316250Y7103889D01*
X2364028Y7009445D01*
X2411806Y6961667D01*
X2506250Y6913889D01*
X2601806Y6913889D01*
X2745139Y6961667D01*
X3316250Y7532778D01*
X3316250Y6913889D01*
X7207639Y4127500D02*
X7540972Y4604167D01*
X7778750Y4127500D02*
X7778750Y5127500D01*
X7397639Y5127500D01*
X7302083Y5079722D01*
X7255417Y5031944D01*
X7207639Y4937500D01*
X7207639Y4794167D01*
X7255417Y4698611D01*
X7302083Y4650833D01*
X7397639Y4604167D01*
X7778750Y4604167D01*
X6236528Y4127500D02*
X6807639Y4127500D01*
X6522083Y4127500D02*
X6522083Y5127500D01*
X6617639Y4984167D01*
X6712083Y4889722D01*
X6807639Y4841944D01*
X5313195Y5127500D02*
X5788750Y5127500D01*
X5836528Y4650833D01*
X5788750Y4698611D01*
X5693195Y4746389D01*
X5455417Y4746389D01*
X5359861Y4698611D01*
X5313195Y4650833D01*
X5265417Y4556389D01*
X5265417Y4317500D01*
X5313195Y4223056D01*
X5359861Y4175278D01*
X5455417Y4127500D01*
X5693195Y4127500D01*
X5788750Y4175278D01*
X5836528Y4223056D01*
X24050556Y12445694D02*
X24146111Y12493472D01*
X24241667Y12589028D01*
X24383889Y12731250D01*
X24479444Y12779028D01*
X24575000Y12779028D01*
X24527222Y12541250D02*
X24621667Y12589028D01*
X24717222Y12684583D01*
X24765000Y12874583D01*
X24765000Y13207917D01*
X24717222Y13397917D01*
X24621667Y13493472D01*
X24527222Y13541250D01*
X24336111Y13541250D01*
X24241667Y13493472D01*
X24146111Y13397917D01*
X24098333Y13207917D01*
X24098333Y12874583D01*
X24146111Y12684583D01*
X24241667Y12589028D01*
X24336111Y12541250D01*
X24527222Y12541250D01*
X23079445Y12541250D02*
X23650556Y12541250D01*
X23365000Y12541250D02*
X23365000Y13541250D01*
X23460556Y13397917D01*
X23555000Y13303472D01*
X23650556Y13255694D01*
X32305556Y4825694D02*
X32401111Y4873472D01*
X32496667Y4969028D01*
X32638889Y5111250D01*
X32734444Y5159028D01*
X32830000Y5159028D01*
X32782222Y4921250D02*
X32876667Y4969028D01*
X32972222Y5064583D01*
X33020000Y5254583D01*
X33020000Y5587917D01*
X32972222Y5777917D01*
X32876667Y5873472D01*
X32782222Y5921250D01*
X32591111Y5921250D01*
X32496667Y5873472D01*
X32401111Y5777917D01*
X32353333Y5587917D01*
X32353333Y5254583D01*
X32401111Y5064583D01*
X32496667Y4969028D01*
X32591111Y4921250D01*
X32782222Y4921250D01*
X31428889Y5587917D02*
X31428889Y4921250D01*
X31667778Y5969028D02*
X31905556Y5254583D01*
X31286667Y5254583D01*
X6096389Y11588750D02*
X6429722Y12065417D01*
X6667500Y11588750D02*
X6667500Y12588750D01*
X6286389Y12588750D01*
X6190833Y12540972D01*
X6144167Y12493194D01*
X6096389Y12398750D01*
X6096389Y12255417D01*
X6144167Y12159861D01*
X6190833Y12112083D01*
X6286389Y12065417D01*
X6667500Y12065417D01*
X5648611Y12493194D02*
X5600833Y12540972D01*
X5506389Y12588750D01*
X5267500Y12588750D01*
X5173056Y12540972D01*
X5125278Y12493194D01*
X5077500Y12398750D01*
X5077500Y12303194D01*
X5125278Y12159861D01*
X5696389Y11588750D01*
X5077500Y11588750D01*
X4487500Y12159861D02*
X4581944Y12207639D01*
X4629722Y12255417D01*
X4677500Y12350972D01*
X4677500Y12398750D01*
X4629722Y12493194D01*
X4581944Y12540972D01*
X4487500Y12588750D01*
X4296389Y12588750D01*
X4200833Y12540972D01*
X4154167Y12493194D01*
X4106389Y12398750D01*
X4106389Y12350972D01*
X4154167Y12255417D01*
X4200833Y12207639D01*
X4296389Y12159861D01*
X4487500Y12159861D01*
X4581944Y12112083D01*
X4629722Y12065417D01*
X4677500Y11969861D01*
X4677500Y11778750D01*
X4629722Y11684306D01*
X4581944Y11636528D01*
X4487500Y11588750D01*
X4296389Y11588750D01*
X4200833Y11636528D01*
X4154167Y11684306D01*
X4106389Y11778750D01*
X4106389Y11969861D01*
X4154167Y12065417D01*
X4200833Y12112083D01*
X4296389Y12159861D01*
X32305556Y12445694D02*
X32401111Y12493472D01*
X32496667Y12589028D01*
X32638889Y12731250D01*
X32734444Y12779028D01*
X32830000Y12779028D01*
X32782222Y12541250D02*
X32876667Y12589028D01*
X32972222Y12684583D01*
X33020000Y12874583D01*
X33020000Y13207917D01*
X32972222Y13397917D01*
X32876667Y13493472D01*
X32782222Y13541250D01*
X32591111Y13541250D01*
X32496667Y13493472D01*
X32401111Y13397917D01*
X32353333Y13207917D01*
X32353333Y12874583D01*
X32401111Y12684583D01*
X32496667Y12589028D01*
X32591111Y12541250D01*
X32782222Y12541250D01*
X31905556Y13541250D02*
X31286667Y13541250D01*
X31620000Y13160139D01*
X31476667Y13160139D01*
X31382223Y13112361D01*
X31334445Y13064583D01*
X31286667Y12970139D01*
X31286667Y12731250D01*
X31334445Y12636806D01*
X31382223Y12589028D01*
X31476667Y12541250D01*
X31762223Y12541250D01*
X31857778Y12589028D01*
X31905556Y12636806D01*
X12605139Y14763750D02*
X12938472Y15240417D01*
X13176250Y14763750D02*
X13176250Y15763750D01*
X12795139Y15763750D01*
X12699583Y15715972D01*
X12652917Y15668194D01*
X12605139Y15573750D01*
X12605139Y15430417D01*
X12652917Y15334861D01*
X12699583Y15287083D01*
X12795139Y15240417D01*
X13176250Y15240417D01*
X11634028Y14763750D02*
X12205139Y14763750D01*
X11919583Y14763750D02*
X11919583Y15763750D01*
X12015139Y15620417D01*
X12109583Y15525972D01*
X12205139Y15478194D01*
X11138472Y14763750D02*
X10948472Y14763750D01*
X10852917Y14811528D01*
X10805139Y14859306D01*
X10710695Y15001528D01*
X10662917Y15192639D01*
X10662917Y15573750D01*
X10710695Y15668194D01*
X10757361Y15715972D01*
X10852917Y15763750D01*
X11044028Y15763750D01*
X11138472Y15715972D01*
X11186250Y15668194D01*
X11234028Y15573750D01*
X11234028Y15334861D01*
X11186250Y15240417D01*
X11138472Y15192639D01*
X11044028Y15144861D01*
X10852917Y15144861D01*
X10757361Y15192639D01*
X10710695Y15240417D01*
X10662917Y15334861D01*
X17161111Y4223056D02*
X17208889Y4175278D01*
X17351111Y4127500D01*
X17446667Y4127500D01*
X17590000Y4175278D01*
X17684444Y4270833D01*
X17732222Y4365278D01*
X17780000Y4556389D01*
X17780000Y4698611D01*
X17732222Y4889722D01*
X17684444Y4984167D01*
X17590000Y5079722D01*
X17446667Y5127500D01*
X17351111Y5127500D01*
X17208889Y5079722D01*
X17161111Y5031944D01*
X16190000Y4127500D02*
X16761111Y4127500D01*
X16475555Y4127500D02*
X16475555Y5127500D01*
X16571111Y4984167D01*
X16665555Y4889722D01*
X16761111Y4841944D01*
X15742222Y5031944D02*
X15694444Y5079722D01*
X15600000Y5127500D01*
X15361111Y5127500D01*
X15266667Y5079722D01*
X15218889Y5031944D01*
X15171111Y4937500D01*
X15171111Y4841944D01*
X15218889Y4698611D01*
X15790000Y4127500D01*
X15171111Y4127500D01*
X36957000Y10318750D02*
X35957000Y10318750D01*
X35957000Y9937639D01*
X36004778Y9842083D01*
X36052556Y9795417D01*
X36147000Y9747639D01*
X36290333Y9747639D01*
X36385889Y9795417D01*
X36433667Y9842083D01*
X36480333Y9937639D01*
X36480333Y10318750D01*
X36671444Y9252083D02*
X36671444Y8776528D01*
X36957000Y9347639D02*
X35957000Y9014306D01*
X36957000Y8680972D01*
X36957000Y8280972D02*
X35957000Y8280972D01*
X35957000Y8043194D01*
X36004778Y7899861D01*
X36100333Y7804305D01*
X36194778Y7757639D01*
X36385889Y7709861D01*
X36528111Y7709861D01*
X36719222Y7757639D01*
X36813667Y7804305D01*
X36909222Y7899861D01*
X36957000Y8043194D01*
X36957000Y8280972D01*
X36290333Y6833194D02*
X36957000Y6833194D01*
X35909222Y7072083D02*
X36623667Y7309861D01*
X36623667Y6690972D01*
X45212000Y10318750D02*
X44212000Y10318750D01*
X44212000Y9937639D01*
X44259778Y9842083D01*
X44307556Y9795417D01*
X44402000Y9747639D01*
X44545333Y9747639D01*
X44640889Y9795417D01*
X44688667Y9842083D01*
X44735333Y9937639D01*
X44735333Y10318750D01*
X44926444Y9252083D02*
X44926444Y8776528D01*
X45212000Y9347639D02*
X44212000Y9014306D01*
X45212000Y8680972D01*
X45212000Y8280972D02*
X44212000Y8280972D01*
X44212000Y8043194D01*
X44259778Y7899861D01*
X44355333Y7804305D01*
X44449778Y7757639D01*
X44640889Y7709861D01*
X44783111Y7709861D01*
X44974222Y7757639D01*
X45068667Y7804305D01*
X45164222Y7899861D01*
X45212000Y8043194D01*
X45212000Y8280972D01*
X44212000Y6786528D02*
X44212000Y7262083D01*
X44688667Y7309861D01*
X44640889Y7262083D01*
X44593111Y7166528D01*
X44593111Y6928750D01*
X44640889Y6833194D01*
X44688667Y6786528D01*
X44783111Y6738750D01*
X45022000Y6738750D01*
X45116444Y6786528D01*
X45164222Y6833194D01*
X45212000Y6928750D01*
X45212000Y7166528D01*
X45164222Y7262083D01*
X45116444Y7309861D01*
X40560556Y12445694D02*
X40656111Y12493472D01*
X40751667Y12589028D01*
X40893889Y12731250D01*
X40989444Y12779028D01*
X41085000Y12779028D01*
X41037222Y12541250D02*
X41131667Y12589028D01*
X41227222Y12684583D01*
X41275000Y12874583D01*
X41275000Y13207917D01*
X41227222Y13397917D01*
X41131667Y13493472D01*
X41037222Y13541250D01*
X40846111Y13541250D01*
X40751667Y13493472D01*
X40656111Y13397917D01*
X40608333Y13207917D01*
X40608333Y12874583D01*
X40656111Y12684583D01*
X40751667Y12589028D01*
X40846111Y12541250D01*
X41037222Y12541250D01*
X39637223Y13541250D02*
X40112778Y13541250D01*
X40160556Y13064583D01*
X40112778Y13112361D01*
X40017223Y13160139D01*
X39779445Y13160139D01*
X39683889Y13112361D01*
X39637223Y13064583D01*
X39589445Y12970139D01*
X39589445Y12731250D01*
X39637223Y12636806D01*
X39683889Y12589028D01*
X39779445Y12541250D01*
X40017223Y12541250D01*
X40112778Y12589028D01*
X40160556Y12636806D01*
X10398056Y8953194D02*
X10493611Y9000972D01*
X10589167Y9096528D01*
X10731389Y9238750D01*
X10826944Y9286528D01*
X10922500Y9286528D01*
X10874722Y9048750D02*
X10969167Y9096528D01*
X11064722Y9192083D01*
X11112500Y9382083D01*
X11112500Y9715417D01*
X11064722Y9905417D01*
X10969167Y10000972D01*
X10874722Y10048750D01*
X10683611Y10048750D01*
X10589167Y10000972D01*
X10493611Y9905417D01*
X10445833Y9715417D01*
X10445833Y9382083D01*
X10493611Y9192083D01*
X10589167Y9096528D01*
X10683611Y9048750D01*
X10874722Y9048750D01*
X9808056Y9619861D02*
X9902500Y9667639D01*
X9950278Y9715417D01*
X9998056Y9810972D01*
X9998056Y9858750D01*
X9950278Y9953194D01*
X9902500Y10000972D01*
X9808056Y10048750D01*
X9616945Y10048750D01*
X9521389Y10000972D01*
X9474723Y9953194D01*
X9426945Y9858750D01*
X9426945Y9810972D01*
X9474723Y9715417D01*
X9521389Y9667639D01*
X9616945Y9619861D01*
X9808056Y9619861D01*
X9902500Y9572083D01*
X9950278Y9525417D01*
X9998056Y9429861D01*
X9998056Y9238750D01*
X9950278Y9144306D01*
X9902500Y9096528D01*
X9808056Y9048750D01*
X9616945Y9048750D01*
X9521389Y9096528D01*
X9474723Y9144306D01*
X9426945Y9238750D01*
X9426945Y9429861D01*
X9474723Y9525417D01*
X9521389Y9572083D01*
X9616945Y9619861D01*
X20383889Y3810000D02*
X20717222Y4286667D01*
X20955000Y3810000D02*
X20955000Y4810000D01*
X20573889Y4810000D01*
X20478333Y4762222D01*
X20431667Y4714444D01*
X20383889Y4620000D01*
X20383889Y4476667D01*
X20431667Y4381111D01*
X20478333Y4333333D01*
X20573889Y4286667D01*
X20955000Y4286667D01*
X19936111Y4714444D02*
X19888333Y4762222D01*
X19793889Y4810000D01*
X19555000Y4810000D01*
X19460556Y4762222D01*
X19412778Y4714444D01*
X19365000Y4620000D01*
X19365000Y4524444D01*
X19412778Y4381111D01*
X19983889Y3810000D01*
X19365000Y3810000D01*
X18965000Y4810000D02*
X18298333Y4810000D01*
X18727222Y3810000D01*
X16049861Y6445556D02*
X16097639Y6397778D01*
X16239861Y6350000D01*
X16335417Y6350000D01*
X16478750Y6397778D01*
X16573194Y6493333D01*
X16620972Y6587778D01*
X16668750Y6778889D01*
X16668750Y6921111D01*
X16620972Y7112222D01*
X16573194Y7206667D01*
X16478750Y7302222D01*
X16335417Y7350000D01*
X16239861Y7350000D01*
X16097639Y7302222D01*
X16049861Y7254444D01*
X15602083Y7254444D02*
X15554305Y7302222D01*
X15459861Y7350000D01*
X15220972Y7350000D01*
X15126528Y7302222D01*
X15078750Y7254444D01*
X15030972Y7160000D01*
X15030972Y7064444D01*
X15078750Y6921111D01*
X15649861Y6350000D01*
X15030972Y6350000D01*
X14393194Y7350000D02*
X14297639Y7350000D01*
X14202083Y7302222D01*
X14154305Y7254444D01*
X14107639Y7160000D01*
X14059861Y6968889D01*
X14059861Y6731111D01*
X14107639Y6540000D01*
X14154305Y6445556D01*
X14202083Y6397778D01*
X14297639Y6350000D01*
X14393194Y6350000D01*
X14487639Y6397778D01*
X14535416Y6445556D01*
X14583194Y6540000D01*
X14630972Y6731111D01*
X14630972Y6968889D01*
X14583194Y7160000D01*
X14535416Y7254444D01*
X14487639Y7302222D01*
X14393194Y7350000D01*
X53340000Y8413750D02*
X53340000Y9413750D01*
X53102222Y9413750D01*
X52958889Y9365972D01*
X52863333Y9270417D01*
X52816667Y9175972D01*
X52768889Y8984861D01*
X52768889Y8842639D01*
X52816667Y8651528D01*
X52863333Y8557083D01*
X52958889Y8461528D01*
X53102222Y8413750D01*
X53340000Y8413750D01*
X51892222Y9080417D02*
X51892222Y8413750D01*
X52131111Y9461528D02*
X52368889Y8747083D01*
X51750000Y8747083D01*
X40560556Y4825694D02*
X40656111Y4873472D01*
X40751667Y4969028D01*
X40893889Y5111250D01*
X40989444Y5159028D01*
X41085000Y5159028D01*
X41037222Y4921250D02*
X41131667Y4969028D01*
X41227222Y5064583D01*
X41275000Y5254583D01*
X41275000Y5587917D01*
X41227222Y5777917D01*
X41131667Y5873472D01*
X41037222Y5921250D01*
X40846111Y5921250D01*
X40751667Y5873472D01*
X40656111Y5777917D01*
X40608333Y5587917D01*
X40608333Y5254583D01*
X40656111Y5064583D01*
X40751667Y4969028D01*
X40846111Y4921250D01*
X41037222Y4921250D01*
X39683889Y5921250D02*
X39875000Y5921250D01*
X39970556Y5873472D01*
X40017223Y5825694D01*
X40112778Y5683472D01*
X40160556Y5492361D01*
X40160556Y5111250D01*
X40112778Y5016806D01*
X40065000Y4969028D01*
X39970556Y4921250D01*
X39779445Y4921250D01*
X39683889Y4969028D01*
X39637223Y5016806D01*
X39589445Y5111250D01*
X39589445Y5350139D01*
X39637223Y5444583D01*
X39683889Y5492361D01*
X39779445Y5540139D01*
X39970556Y5540139D01*
X40065000Y5492361D01*
X40112778Y5444583D01*
X40160556Y5350139D01*
X4445000Y730250D02*
X4445000Y1730250D01*
X4063889Y1730250D01*
X3968333Y1682472D01*
X3921667Y1634694D01*
X3873889Y1540250D01*
X3873889Y1396917D01*
X3921667Y1301361D01*
X3968333Y1253583D01*
X4063889Y1206917D01*
X4445000Y1206917D01*
X3378333Y1015806D02*
X2902778Y1015806D01*
X3473889Y730250D02*
X3140556Y1730250D01*
X2807222Y730250D01*
X2407222Y730250D02*
X2407222Y1730250D01*
X2169444Y1730250D01*
X2026111Y1682472D01*
X1930555Y1586917D01*
X1883889Y1492472D01*
X1836111Y1301361D01*
X1836111Y1159139D01*
X1883889Y968028D01*
X1930555Y873583D01*
X2026111Y778028D01*
X2169444Y730250D01*
X2407222Y730250D01*
X1436111Y1730250D02*
X769444Y1730250D01*
X1198333Y730250D01*
X12700000Y3286000D02*
X12700000Y2476000D01*
X12652222Y2381556D01*
X12604444Y2333778D01*
X12510000Y2286000D01*
X12318889Y2286000D01*
X12223333Y2333778D01*
X12176667Y2381556D01*
X12128889Y2476000D01*
X12128889Y3286000D01*
X11205556Y3286000D02*
X11681111Y3286000D01*
X11728889Y2809333D01*
X11681111Y2857111D01*
X11585556Y2904889D01*
X11347778Y2904889D01*
X11252222Y2857111D01*
X11205556Y2809333D01*
X11157778Y2714889D01*
X11157778Y2476000D01*
X11205556Y2381556D01*
X11252222Y2333778D01*
X11347778Y2286000D01*
X11585556Y2286000D01*
X11681111Y2333778D01*
X11728889Y2381556D01*
X4762500Y15874583D02*
X4762500Y16351250D01*
X3762500Y16351250D01*
X4239167Y15474583D02*
X4239167Y15141250D01*
X4762500Y14997916D02*
X4762500Y15474583D01*
X3762500Y15474583D01*
X3762500Y14997916D01*
X4762500Y14597916D02*
X3762500Y14597916D01*
X3762500Y14360138D01*
X3810278Y14216805D01*
X3905833Y14121249D01*
X4000278Y14074583D01*
X4191389Y14026805D01*
X4333611Y14026805D01*
X4524722Y14074583D01*
X4619167Y14121249D01*
X4714722Y14216805D01*
X4762500Y14360138D01*
X4762500Y14597916D01*
X3858056Y13579027D02*
X3810278Y13531249D01*
X3762500Y13436805D01*
X3762500Y13197916D01*
X3810278Y13103472D01*
X3858056Y13055694D01*
X3952500Y13007916D01*
X4048056Y13007916D01*
X4191389Y13055694D01*
X4762500Y13626805D01*
X4762500Y13007916D01*
X28702000Y10318750D02*
X27702000Y10318750D01*
X27702000Y9937639D01*
X27749778Y9842083D01*
X27797556Y9795417D01*
X27892000Y9747639D01*
X28035333Y9747639D01*
X28130889Y9795417D01*
X28178667Y9842083D01*
X28225333Y9937639D01*
X28225333Y10318750D01*
X28416444Y9252083D02*
X28416444Y8776528D01*
X28702000Y9347639D02*
X27702000Y9014306D01*
X28702000Y8680972D01*
X28702000Y8280972D02*
X27702000Y8280972D01*
X27702000Y8043194D01*
X27749778Y7899861D01*
X27845333Y7804305D01*
X27939778Y7757639D01*
X28130889Y7709861D01*
X28273111Y7709861D01*
X28464222Y7757639D01*
X28558667Y7804305D01*
X28654222Y7899861D01*
X28702000Y8043194D01*
X28702000Y8280972D01*
X27702000Y7309861D02*
X27702000Y6690972D01*
X28083111Y7024305D01*
X28083111Y6880972D01*
X28130889Y6786528D01*
X28178667Y6738750D01*
X28273111Y6690972D01*
X28512000Y6690972D01*
X28606444Y6738750D01*
X28654222Y6786528D01*
X28702000Y6880972D01*
X28702000Y7166528D01*
X28654222Y7262083D01*
X28606444Y7309861D01*
X47834939Y2362200D02*
X48168272Y2838867D01*
X48406050Y2362200D02*
X48406050Y3362200D01*
X48024939Y3362200D01*
X47929383Y3314422D01*
X47882717Y3266644D01*
X47834939Y3172200D01*
X47834939Y3028867D01*
X47882717Y2933311D01*
X47929383Y2885533D01*
X48024939Y2838867D01*
X48406050Y2838867D01*
X46863828Y2362200D02*
X47434939Y2362200D01*
X47149383Y2362200D02*
X47149383Y3362200D01*
X47244939Y3218867D01*
X47339383Y3124422D01*
X47434939Y3076644D01*
X46273828Y2933311D02*
X46368272Y2981089D01*
X46416050Y3028867D01*
X46463828Y3124422D01*
X46463828Y3172200D01*
X46416050Y3266644D01*
X46368272Y3314422D01*
X46273828Y3362200D01*
X46082717Y3362200D01*
X45987161Y3314422D01*
X45940495Y3266644D01*
X45892717Y3172200D01*
X45892717Y3124422D01*
X45940495Y3028867D01*
X45987161Y2981089D01*
X46082717Y2933311D01*
X46273828Y2933311D01*
X46368272Y2885533D01*
X46416050Y2838867D01*
X46463828Y2743311D01*
X46463828Y2552200D01*
X46416050Y2457756D01*
X46368272Y2409978D01*
X46273828Y2362200D01*
X46082717Y2362200D01*
X45987161Y2409978D01*
X45940495Y2457756D01*
X45892717Y2552200D01*
X45892717Y2743311D01*
X45940495Y2838867D01*
X45987161Y2885533D01*
X46082717Y2933311D01*
X17071249Y13763750D02*
X17404582Y14240417D01*
X17642360Y13763750D02*
X17642360Y14763750D01*
X17261249Y14763750D01*
X17165693Y14715972D01*
X17119027Y14668194D01*
X17071249Y14573750D01*
X17071249Y14430417D01*
X17119027Y14334861D01*
X17165693Y14287083D01*
X17261249Y14240417D01*
X17642360Y14240417D01*
X16671249Y14763750D02*
X16052360Y14763750D01*
X16385693Y14382639D01*
X16242360Y14382639D01*
X16147916Y14334861D01*
X16100138Y14287083D01*
X16052360Y14192639D01*
X16052360Y13953750D01*
X16100138Y13859306D01*
X16147916Y13811528D01*
X16242360Y13763750D01*
X16527916Y13763750D01*
X16623471Y13811528D01*
X16671249Y13859306D01*
X15414582Y14763750D02*
X15319027Y14763750D01*
X15223471Y14715972D01*
X15175693Y14668194D01*
X15129027Y14573750D01*
X15081249Y14382639D01*
X15081249Y14144861D01*
X15129027Y13953750D01*
X15175693Y13859306D01*
X15223471Y13811528D01*
X15319027Y13763750D01*
X15414582Y13763750D01*
X15509027Y13811528D01*
X15556804Y13859306D01*
X15604582Y13953750D01*
X15652360Y14144861D01*
X15652360Y14382639D01*
X15604582Y14573750D01*
X15556804Y14668194D01*
X15509027Y14715972D01*
X15414582Y14763750D01*
X16049861Y8033056D02*
X16097639Y7985278D01*
X16239861Y7937500D01*
X16335417Y7937500D01*
X16478750Y7985278D01*
X16573194Y8080833D01*
X16620972Y8175278D01*
X16668750Y8366389D01*
X16668750Y8508611D01*
X16620972Y8699722D01*
X16573194Y8794167D01*
X16478750Y8889722D01*
X16335417Y8937500D01*
X16239861Y8937500D01*
X16097639Y8889722D01*
X16049861Y8841944D01*
X15602083Y8841944D02*
X15554305Y8889722D01*
X15459861Y8937500D01*
X15220972Y8937500D01*
X15126528Y8889722D01*
X15078750Y8841944D01*
X15030972Y8747500D01*
X15030972Y8651944D01*
X15078750Y8508611D01*
X15649861Y7937500D01*
X15030972Y7937500D01*
X14059861Y7937500D02*
X14630972Y7937500D01*
X14345416Y7937500D02*
X14345416Y8937500D01*
X14440972Y8794167D01*
X14535416Y8699722D01*
X14630972Y8651944D01*
X19659027Y11478056D02*
X19706805Y11430278D01*
X19849027Y11382500D01*
X19944583Y11382500D01*
X20087916Y11430278D01*
X20182360Y11525833D01*
X20230138Y11620278D01*
X20277916Y11811389D01*
X20277916Y11953611D01*
X20230138Y12144722D01*
X20182360Y12239167D01*
X20087916Y12334722D01*
X19944583Y12382500D01*
X19849027Y12382500D01*
X19706805Y12334722D01*
X19659027Y12286944D01*
X19211249Y12286944D02*
X19163471Y12334722D01*
X19069027Y12382500D01*
X18830138Y12382500D01*
X18735694Y12334722D01*
X18687916Y12286944D01*
X18640138Y12192500D01*
X18640138Y12096944D01*
X18687916Y11953611D01*
X19259027Y11382500D01*
X18640138Y11382500D01*
X18192360Y12286944D02*
X18144582Y12334722D01*
X18050138Y12382500D01*
X17811249Y12382500D01*
X17716805Y12334722D01*
X17669027Y12286944D01*
X17621249Y12192500D01*
X17621249Y12096944D01*
X17669027Y11953611D01*
X18240138Y11382500D01*
X17621249Y11382500D01*
%LPC*%
D18*
X55880000Y14605000D03*
D19*
X20535000Y15557500D03*
X18835000Y15557500D03*
D20*
X7717500Y15240000D03*
X5617500Y15240000D03*
D19*
X14343750Y10001250D03*
X12643750Y10001250D03*
D21*
X55880000Y10795000D03*
D22*
X55880000Y5715000D03*
D23*
X23495000Y2747500D03*
X24765000Y2747500D03*
X26035000Y2747500D03*
D24*
X24130000Y6397500D03*
D23*
X22225000Y2747500D03*
D25*
X5357500Y7630000D03*
D26*
X2232500Y12630000D03*
D25*
X5357500Y6380000D03*
X5357500Y8880000D03*
D26*
X2232500Y3880000D03*
D25*
X5357500Y10130000D03*
D27*
X6985000Y3707500D03*
X6985000Y2007500D03*
D23*
X23495000Y10367500D03*
X24765000Y10367500D03*
X26035000Y10367500D03*
D24*
X24130000Y14017500D03*
D23*
X22225000Y10367500D03*
X31750000Y2747500D03*
X33020000Y2747500D03*
X34290000Y2747500D03*
D24*
X32385000Y6397500D03*
D23*
X30480000Y2747500D03*
D19*
X4865000Y13335000D03*
X6565000Y13335000D03*
D18*
X55880000Y1905000D03*
D23*
X31750000Y10367500D03*
X33020000Y10367500D03*
X34290000Y10367500D03*
D24*
X32385000Y14017500D03*
D23*
X30480000Y10367500D03*
D19*
X9310000Y15240000D03*
X11010000Y15240000D03*
X16986250Y3707500D03*
X16986250Y2007500D03*
D28*
X36512500Y8890000D03*
X44767500Y8890000D03*
D23*
X40005000Y10367500D03*
X41275000Y10367500D03*
X42545000Y10367500D03*
D24*
X40640000Y14017500D03*
D23*
X38735000Y10367500D03*
D29*
X10318750Y7475000D03*
X10318750Y11575000D03*
D27*
X20002500Y1690000D03*
X20002500Y3390000D03*
X12643750Y6826250D03*
X14343750Y6826250D03*
D30*
X52705000Y6850000D03*
X52705000Y10920000D03*
D23*
X40005000Y2747500D03*
X41275000Y2747500D03*
X42545000Y2747500D03*
D24*
X40640000Y6397500D03*
D23*
X38735000Y2747500D03*
D31*
X3016250Y1270000D03*
D32*
X15138400Y952500D03*
X8991600Y4762500D03*
X8991600Y952500D03*
X15138400Y3492500D03*
X15138400Y2222500D03*
X8991600Y3492500D03*
X8991600Y2222500D03*
X15138400Y4762500D03*
D20*
X3272500Y15240000D03*
X1172500Y15240000D03*
D28*
X28257500Y8890000D03*
D33*
X49828450Y2857500D03*
X45104050Y2857500D03*
D19*
X17042500Y15557500D03*
X15342500Y15557500D03*
D27*
X12643750Y8413750D03*
X14343750Y8413750D03*
D19*
X18732500Y9310000D03*
X18732500Y11010000D03*
D34*
X10953750Y2857500D03*
X27622500Y14128750D03*
X35877500Y14128750D03*
X44132500Y14128750D03*
X4762500Y3016250D03*
G04 --- BOARD END --- *
%TF.MD5,d8515de9fd89ee0901fe8bc5da9b1d3e*%
M02*
