M48
;DRILL FILE
;Generated by LibrePCB 0.1.0
;Creation Date: 2018-04-15T17:46:50
FMAT,2
METRIC,TZ
T1C0.3
T2C0.4
T3C0.5
T4C0.6
T5C1.016
T6C1.397
%
G90
G05
M71
T1
X38.735Y9.36625
X20.0025Y5.87375
X20.0025Y4.92125
X13.6525Y12.065
X19.3675Y13.97
X18.0975Y12.3825
X33.02Y4.7625
X30.48Y9.36625
X12.3825Y14.76375
X24.765Y4.7625
X8.255Y6.82625
X8.09625Y9.04875
X11.7475Y0.9525
X13.97Y15.39875
X13.17625Y15.39875
X4.445Y15.875
X4.60375Y4.28625
X4.60375Y5.08
X16.8275Y5.715
X16.03375Y5.715
X20.0025Y9.525
X7.62Y4.92125
X7.62Y5.715
X10.4775Y9.525
X14.44625Y5.715
X15.24Y5.715
X12.7Y1.905
X18.415Y13.97
X14.44625Y14.44625
X6.50875Y0.79375
X29.36875Y3.81
X17.4625Y8.89
X12.85875Y5.55625
X8.09625Y8.255
X21.11375Y2.8575
X15.08125Y12.065
X11.7475Y5.55625
X21.11375Y3.81
X13.49375Y14.44625
X37.62375Y3.81
X21.43125Y9.04875
X41.275Y4.7625
X16.03375Y11.58875
X8.255Y12.065
T2
X1.5875Y6.0325
X1.5875Y7.14375
X1.5875Y8.255
X1.5875Y9.36625
X2.69875Y10.4775
X2.69875Y6.0325
X2.69875Y7.14375
X2.69875Y8.255
X2.69875Y9.36625
X21.74875Y0.635
X20.79625Y0.635
X19.84375Y0.635
X18.89125Y0.635
T3
X53.0225Y8.5725
X48.895Y10.31875
X47.625Y10.95375
X47.625Y12.065
X48.895Y12.7
T4
X4.7625Y3.01625
X44.1325Y14.12875
X35.8775Y14.12875
X27.6225Y14.12875
X10.95375Y2.8575
T5
X55.88Y5.715
X55.88Y10.795
T6
X55.88Y1.905
X55.88Y14.605
T0
M30
